<?xml version="1.0" encoding="utf-8"?>
<!-- Generator: Adobe Illustrator 16.2.0, SVG Export Plug-In . SVG Version: 6.00 Build 0)  -->
<!DOCTYPE svg PUBLIC "-//W3C//DTD SVG 1.1//EN" "http://www.w3.org/Graphics/SVG/1.1/DTD/svg11.dtd">
<svg version="1.1" id="Layer_1" xmlns="http://www.w3.org/2000/svg" xmlns:xlink="http://www.w3.org/1999/xlink" x="0px" y="0px"
	 width="480px" height="480px" viewBox="0 0 480 480" enable-background="new 0 0 480 480" xml:space="preserve">
<path fill="#CC3333" d="M437.04,142.45H39.96C75.66,68.79,151.15,18,238.5,18c0.5,0,1,0,1.5,0.01
	c81.8,0.54,153.01,45.62,190.62,112.2C432.88,134.21,435.02,138.3,437.04,142.45z"/>
<path fill="#F7ED38" d="M459,238.5c0,0.78,0,1.56-0.02,2.34c-0.341,33.49-8.15,65.19-21.86,93.521H39.88
	c-13.71-28.33-21.52-60.03-21.86-93.521C18,240.06,18,239.28,18,238.5c0-34.43,7.89-67.02,21.96-96.05h397.08
	C451.11,171.48,459,204.07,459,238.5z"/>
<path fill="#CC3333" d="M437.12,334.36c-2.71,5.64-5.67,11.14-8.851,16.5C389.85,415.6,319.24,459,238.5,459
	S87.15,415.6,48.73,350.86c-3.18-5.36-6.14-10.86-8.85-16.5H437.12z"/>
</svg>
