<?xml version="1.0" encoding="utf-8"?>
<!-- Generator: Adobe Illustrator 16.2.0, SVG Export Plug-In . SVG Version: 6.00 Build 0)  -->
<!DOCTYPE svg PUBLIC "-//W3C//DTD SVG 1.1//EN" "http://www.w3.org/Graphics/SVG/1.1/DTD/svg11.dtd">
<svg version="1.1" id="Layer_1" xmlns="http://www.w3.org/2000/svg" xmlns:xlink="http://www.w3.org/1999/xlink" x="0px" y="0px"
	 width="288px" height="144px" viewBox="0 0 288 144" enable-background="new 0 0 288 144" xml:space="preserve">
<path fill="#DAF1FD" d="M26.139,68.146C14.298,77.948,2.627,97.991,6.053,104.842c3.426,6.851,10.847,15.536,31.785,17.96
	c20.938,2.424,28.779,3.665,37.82,8.145c9.041,4.479,31.655-0.485,53.335-4.332c21.674-3.848,25.091-1.228,37.144,1.32
	c12.054,2.548,26.39-3.63,47.203-4.774c20.813-1.145,52.11-7.437,52.521-8.919s22.281-24.68,16.161-30.53
	s-19.244-20.489-39.627-23.293c-20.382-2.804-87.711-4.854-98.277-5.628c-10.562-0.775-34.346-2.627-52.106-0.213
	C74.25,56.992,36.15,59.852,26.139,68.146z"/>
<g>
	<g>
		<path fill="#FFFFFF" d="M224.824,42.772c7.748-1.966,12.945,4.463,14.798,11.257c2.093,7.669-0.94,16.87-8.102,20.643
			c-1.292,0.681,0.086-0.045-1.542,0.874c-1.807,1.021-3.614,2.04-5.421,3.061c-2.945,1.663-5.891,3.326-8.836,4.988
			c1.836,0.747,3.673,1.494,5.509,2.241c-3.852-14.135-7.702-28.27-11.553-42.405c-0.873,1.538-1.746,3.076-2.619,4.613
			C212.98,46.288,218.906,44.543,224.824,42.772c1.604-0.48,2.753-1.92,2.753-3.616c0-0.003,0-0.007,0-0.011
			c0-4.836-7.5-4.836-7.5,0c0,0.003,0,0.007,0,0.011c0.918-1.206,1.835-2.411,2.753-3.616c-5.917,1.771-11.843,3.516-17.766,5.271
			c-1.962,0.582-3.164,2.612-2.619,4.613c3.852,14.135,7.702,28.27,11.553,42.405c0.645,2.365,3.407,3.428,5.509,2.241
			c8.957-5.058,20.423-9.361,25.365-18.872c7.902-15.205-2.25-40.682-22.042-35.659C218.145,36.729,220.134,43.963,224.824,42.772
			L224.824,42.772z"/>
	</g>
</g>
<ellipse fill="none" stroke="#FFFFFF" stroke-width="1.5" stroke-miterlimit="10" cx="211.558" cy="65.735" rx="18" ry="22.5"/>
<g>
	<g>
		<path fill="#FFFFFF" d="M215.817,64.434c-0.167,1.649-6.41,3.141-7.749,3.509c-5.031,1.384-10.311,1.684-15.501,1.742
			c-5.222,0.059-10.428-0.519-15.501-1.742c-1.335-0.322-7.586-1.892-7.749-3.509c-0.143-1.409,6.687-3.216,7.749-3.509
			c5.031-1.384,10.311-1.683,15.501-1.741c5.222-0.059,10.428,0.519,15.501,1.741C209.403,61.247,215.654,62.817,215.817,64.434
			c0.481,4.764,7.986,4.811,7.5,0c-1.229-12.161-22.036-12.652-30.75-12.75c-8.692-0.098-29.533,0.716-30.75,12.75
			c-0.462,4.564,4.89,7.706,8.379,9.116c7.045,2.846,14.838,3.55,22.371,3.635c8.692,0.098,29.533-0.717,30.75-12.75
			C223.804,59.623,216.299,59.67,215.817,64.434z"/>
	</g>
</g>
<g>
	<g>
		<path fill="#FFFFFF" d="M215.817,64.434c0,7.142,0,14.285,0,21.426c0,2.211,0.784,5.096-0.998,6.382
			c-5.921,4.272-15.316,4.378-22.252,4.456c-7.065,0.079-15.065-0.583-21.421-3.946c-2.64-1.396-1.829-3.231-1.829-6.094
			c0-7.408,0-14.816,0-22.224c-2.5,0-5,0-7.5,0c1.229,12.161,22.036,12.653,30.75,12.75c8.692,0.098,29.533-0.717,30.75-12.75
			C223.804,59.623,216.299,59.67,215.817,64.434c-0.167,1.649-6.41,3.141-7.749,3.509c-5.031,1.384-10.311,1.684-15.501,1.742
			c-5.222,0.059-10.428-0.519-15.501-1.742c-1.335-0.322-7.586-1.892-7.749-3.509c-0.477-4.714-7.5-4.928-7.5,0
			c0,8.482,0,16.965,0,25.448c0,13.541,21.211,14.209,30.75,14.316c8.986,0.101,30.75-0.861,30.75-13.857c0-8.636,0-17.271,0-25.907
			C223.317,59.598,215.817,59.598,215.817,64.434z"/>
	</g>
</g>
<path fill="#F4F1ED" stroke="#8E7B69" stroke-width="1.25" stroke-miterlimit="10" d="M223.863,39.158
	c1.227-0.376,2.513-0.574,3.838-0.574c8.981,0,16.262,9.1,16.262,20.317c0,8.695-4.372,16.114-10.515,19.011l-0.01,0.011
	l-0.633,0.355l-15.155,8.557L206.098,44.43l16.28-4.827L223.863,39.158v-0.011"/>
<ellipse fill="#F4F1ED" stroke="#8E7B69" stroke-width="1.25" stroke-miterlimit="10" cx="211.594" cy="65.737" rx="18" ry="22.5"/>
<ellipse fill="#594C3E" stroke="#8E7B69" stroke-width="1.25" stroke-miterlimit="10" cx="204.764" cy="66.392" rx="3.3" ry="4.125"/>
<g>
	<g>
		<path fill="#FFFFFF" d="M72.617,57.856c3.637-8.326,8.573-18.204,18.904-18.445c5.555-0.129,10.799,2.929,16.315,3.509
			c4.315,0.454,8.525,0.094,12.662-1.23c2.499-0.8,4.187-2.114,6.231-1.196c2.401,1.078,4.543,2.844,6.488,4.585
			c0.495,0.443,0.6,3.33,0.663,4.623c0.368,7.532-3.177,16.281,1.455,23.169c1.115,1.658,2.584,5.751,0.005,6.49
			c-3.092,0.888-6.536,0.897-9.697,1.756c-2.752,0.747-5.43,1.825-8.048,2.947c-3.48,1.492-5.297,1.84-9.098,1.396
			c-3.941-0.46-7.862-1.404-11.72-2.31c-0.837-0.196-1.671-0.402-2.505-0.613c0.354,0.09,0.866,0.462-0.279-0.3
			c-2.491-1.658-4.983-3.317-7.475-4.976c-4.701-3.129-9.402-6.257-14.103-9.386c0.619,1.079,1.238,2.159,1.857,3.238
			c-0.381-5.05-0.763-10.101-1.145-15.151c-0.362-4.792-7.865-4.827-7.5,0c0.203,2.69,0.406,5.379,0.609,8.069
			c0.188,2.482-0.278,6.712,1.047,8.975c0.9,1.538,3.286,2.638,4.708,3.583c3.312,2.205,6.624,4.409,9.936,6.613
			c3.866,2.573,7.602,5.908,12.172,7.018c6.372,1.546,15.737,4.785,22.216,2.539c5.53-1.918,10.492-4.448,16.327-5.572
			c4.442-0.856,9.706-0.971,11.101-6.367c2.045-7.911-4.881-14.063-3.021-22.129c0.922-4.003,0.835-8.258,0.403-12.319
			c-0.48-4.512-2.329-6.659-5.924-9.331c-3.17-2.357-7.131-5.162-11.304-4.396c-3.023,0.554-5.808,2.086-8.838,2.724
			c-5.913,1.246-11.585-1.127-17.178-2.626c-4.643-1.244-9.665-1.1-14.167,0.57c-8.96,3.324-13.972,12.507-17.575,20.758
			C64.225,58.458,70.685,62.279,72.617,57.856z"/>
	</g>
</g>
<g>
	<g>
		<path fill="#FFFFFF" d="M102.461,50.23c3.879,0.636,7.358,0.314,11.169-0.577c1.62-0.379,7.758-1.838,8.905-0.23
			c2.782,3.901,9.291,0.162,6.476-3.785c-6.04-8.468-16.533-1.324-24.555-2.64C99.726,42.222,97.698,49.449,102.461,50.23
			L102.461,50.23z"/>
	</g>
</g>
<g>
	<path fill="#EFE6DA" d="M69.375,55.977c5.726-13.337,13.667-24.537,30.466-18.733c16.799,5.804,22.5-1.934,26.369-0.916
		s8.756,5.192,10.182,6.618c1.425,1.425,1.629,11.709,0.712,14.763c-0.917,3.054-0.306,10.889,1.222,12.923
		c1.527,2.034,5.188,11.909-3.156,12.52c-8.349,0.611-15.984,4.276-19.853,6.007c-3.869,1.731-22.297-3.054-22.297-3.054
		l-22.5-14.976L69.375,55.977z"/>
	<g>
		<path fill="#8E7B69" d="M70.455,56.607c4.652-10.651,11.443-21.42,24.688-19.331c5.688,0.897,10.719,3.318,16.597,3.395
			c3.766,0.05,7.35-1.054,10.823-2.387c4.557-1.75,8.286,1.513,11.712,4.407c3.296,2.784,2.426,10.151,1.784,14.031
			c-0.665,4.02-0.741,7.764,0.099,11.793c0.734,3.521,3.116,5.862,3.023,9.741c-0.097,4.082-5.003,3.7-7.868,4.124
			c-3.26,0.481-6.434,1.548-9.518,2.674c-4.407,1.609-7.511,3.497-12.311,3.036c-5.174-0.497-13.274-1.363-17.137-3.934
			c-5.944-3.957-11.888-7.913-17.833-11.87c-0.921-0.613-1.841-1.226-2.762-1.838c-1.283-0.854,0.073,1.4-0.035-0.026
			c-0.279-3.697-0.559-7.393-0.838-11.09c-0.084-1.119-0.169-2.237-0.253-3.356c-0.121-1.597-2.622-1.609-2.5,0
			c0.203,2.69,0.406,5.38,0.609,8.07c0.152,2.01-0.356,5.9,0.706,7.713c0.668,1.141,2.774,1.997,3.811,2.687
			c3.312,2.204,6.624,4.408,9.936,6.612c3.664,2.439,7.245,5.715,11.575,6.766c5.882,1.428,14.891,4.618,20.887,2.539
			c5.536-1.919,10.493-4.448,16.327-5.572c3.386-0.652,8.244-0.327,9.354-4.62c0.706-2.73,0.244-5.577-0.866-8.146
			c-1.958-4.529-3.322-8.927-2.155-13.984c0.872-3.78,0.721-7.825,0.313-11.655c-0.383-3.6-1.811-5.035-4.686-7.172
			c-2.447-1.819-6.04-4.757-9.377-4.145c-3.023,0.554-5.808,2.086-8.838,2.725c-10.839,2.283-20.563-6.056-31.345-2.056
			c-8.247,3.059-12.797,12.09-16.081,19.608C67.658,56.808,69.811,58.082,70.455,56.607z"/>
	</g>
</g>
<g>
	<g>
		<path fill="#FFFFFF" d="M83.854,49.38c-9.613-1.951-20.055-0.261-29.484,1.942c-3.649,0.853-7.404,1.957-10.682,3.813
			c-4.326,2.45-4.824,6.805-4.189,11.259c0.443,3.107,0.9,5.549-0.167,8.614c-0.82,2.355-1.564,4.628-1.782,7.138
			c-0.45,5.188,0.644,10.506,3.968,14.634c5.094,6.326,12.552,7.337,20.163,8.292c9.053,1.135,18.327,1.303,27.424,0.671
			c7.163-0.498,12.424-1.517,17.727-6.457c6.941-6.468,14.828-15.96,12.222-26.11c-2.296-8.944-12.862-12.679-20.326-15.963
			C93.41,54.874,89.7,50.905,83.854,49.38c-4.685-1.222-6.67,6.013-1.994,7.232c4.486,1.169,7.376,3.72,11.181,6.129
			c2.505,1.586,5.561,2.481,8.25,3.709c3.466,1.582,7.165,3.533,9.465,6.67c3.091,4.22,0.3,9.164-2.167,12.899
			c-3.444,5.216-8.005,10.509-14.297,11.642c-7.036,1.268-14.5,1.037-21.61,0.768c-6.802-0.257-13.849-0.738-20.391-2.747
			c-3.324-1.021-5.638-3.858-6.769-7.069c-1.823-5.179,0.831-9.589,1.849-14.511c0.412-1.991,0.271-4.054-0.027-6.047
			c-0.238-1.588-1.263-4.283-0.569-5.835c1.015-2.271,7.574-3.164,9.589-3.666c7.958-1.981,17.343-3.597,25.496-1.942
			C86.582,57.57,88.592,50.342,83.854,49.38z"/>
	</g>
</g>
<g>
	<path fill="#EFE6DA" d="M82.997,52.826c-10.123-2.309-32.478,1.935-37.772,5.702s1.018,9.875-2.138,17.308
		c-3.156,7.433-2.545,16.696,5.192,21.89c7.737,5.192,47.647,6.008,53.043,1.426s17.207-15.985,14.254-25.148
		c-2.952-9.163-17.308-12.421-20.973-14.966S88.8,54.15,82.997,52.826z"/>
	<g>
		<path fill="#8E7B69" d="M83.33,51.621c-9.148-1.856-19.188-0.152-28.155,1.942c-6.888,1.609-14.33,3.555-13.125,11.998
			c0.506,3.548,1.054,6.435-0.167,9.943c-0.742,2.132-1.495,4.197-1.692,6.473c-0.388,4.474,0.334,9.264,3.236,12.867
			c4.664,5.791,11.394,6.681,18.395,7.559c9.053,1.136,18.327,1.303,27.424,0.672c6.468-0.449,11.185-1.276,15.959-5.726
			c6.207-5.784,13.934-14.503,11.58-23.678c-2.089-8.141-12.454-11.511-19.178-14.469C92.488,56.95,88.939,53.084,83.33,51.621
			c-1.562-0.407-2.224,2.004-0.665,2.411c4.722,1.231,7.787,3.854,11.778,6.381c2.505,1.587,5.561,2.482,8.25,3.709
			c3.917,1.788,7.777,4.04,10.362,7.567c3.657,4.991,0.789,10.949-2.167,15.423c-3.76,5.693-8.887,11.548-15.792,12.791
			c-7.269,1.309-14.927,1.134-22.275,0.856c-7.016-0.266-14.309-0.765-21.055-2.836c-4.193-1.288-7.085-4.756-8.515-8.815
			c-1.998-5.675,0.735-10.456,1.849-15.841c0.833-4.024-2.025-8.717-0.344-12.48c1.379-3.088,8.264-4.113,11.083-4.814
			c8.42-2.096,18.204-3.691,26.826-1.942C84.239,54.351,84.909,51.941,83.33,51.621z"/>
	</g>
</g>
<g>
	<g>
		<path fill="#8E7B69" d="M81.251,73.639c1.111,0.885,1.458,2.336,1.596,3.692c0.085,0.844,0.245,3.015-0.704,3.469
			c-1.09,0.521-0.139,2.139,0.946,1.619c1.504-0.72,1.656-2.902,1.667-4.341c0.015-2.006-0.541-4.458-2.18-5.765
			C81.642,71.569,80.306,72.885,81.251,73.639L81.251,73.639z"/>
	</g>
</g>
<g>
	<g>
		<path fill="#8E7B69" d="M52.507,90.357c2.708,3.94,7.901,5.848,12.468,4.334c1.142-0.379,0.653-2.189-0.498-1.809
			c-3.737,1.239-8.104-0.202-10.351-3.473C53.446,88.421,51.82,89.357,52.507,90.357L52.507,90.357z"/>
	</g>
</g>
<g>
	<g>
		<path fill="#8E7B69" d="M45.247,85.218c1.799,4.688,5.078,9.104,10.643,8.503c1.189-0.128,1.202-2.005,0-1.875
			c-4.692,0.507-7.317-3.172-8.835-7.126C46.626,83.603,44.813,84.087,45.247,85.218L45.247,85.218z"/>
	</g>
</g>
<g>
	<g>
		<path fill="#8E7B69" d="M61.33,66.818c0.811-1.102,2.471-1.602,3.711-1.982c0.86-0.264,2.588-0.861,3.459-0.396
			c1.066,0.569,2.013-1.05,0.946-1.619c-1.438-0.767-3.443-0.201-4.904,0.207c-1.784,0.498-3.705,1.314-4.832,2.843
			C58.993,66.847,60.621,67.779,61.33,66.818L61.33,66.818z"/>
	</g>
</g>
<g>
	<g>
		<path fill="#8E7B69" d="M56.646,68.654c0.271,0.097,0.56,0.225,0.854,0.229c0.778,0.012,1.295-1.055,0.663-1.599
			c-1.027-0.881-3.244-0.825-4.471-0.698c-2.715,0.28-4.567,2.085-5.131,4.726c-0.252,1.177,1.556,1.679,1.808,0.498
			c0.435-2.033,1.681-3.241,3.773-3.39c0.648-0.047,1.307,0.008,1.946,0.121c0.234,0.042,0.466,0.098,0.697,0.157
			c0.353,0.092,0.527,0.318,0.053-0.088c0.221-0.533,0.442-1.066,0.663-1.599c0.459,0.007-0.181-0.1-0.356-0.163
			C56.004,66.436,55.518,68.246,56.646,68.654L56.646,68.654z"/>
	</g>
</g>
<g>
	<g>
		<path fill="#8E7B69" d="M103.206,47.531c3.358,0.551,6.383,0.193,9.673-0.576c3.203-0.749,9.806-2.127,12.08,1.062
			c0.695,0.976,2.323,0.041,1.619-0.946c-4.67-6.55-16.583-0.315-22.875-1.347C102.522,45.529,102.015,47.335,103.206,47.531
			L103.206,47.531z"/>
	</g>
</g>
<g>
	<g>
		<path fill="#8E7B69" d="M116.858,54.067c2.11,0.279,2.816,2.184,2.677,4.083c-0.088,1.207,1.787,1.198,1.875,0
			c0.224-3.057-1.442-5.546-4.552-5.958C115.663,52.034,115.678,53.911,116.858,54.067L116.858,54.067z"/>
	</g>
</g>
<g>
	<g>
		<path fill="#8E7B69" d="M119.478,78.762c2.527,0.985,7.784,0.383,7.67-3.298c-0.037-1.206-1.913-1.21-1.875,0
			c0.028,0.895-0.907,1.378-1.64,1.652c-1.205,0.451-2.486,0.294-3.657-0.163C118.848,76.514,118.364,78.327,119.478,78.762
			L119.478,78.762z"/>
	</g>
</g>
<g>
	<g>
		<path fill="#8E7B69" d="M118.918,59.43c1.633,0.437,3.322,0.483,3.832,2.32c0.267,0.964,0.73,3.977,0.072,4.547
			c-0.915,0.793,0.417,2.112,1.326,1.325c1.463-1.268,0.784-4.45,0.495-5.998c-0.541-2.89-2.724-3.333-5.226-4.001
			C118.247,57.31,117.751,59.119,118.918,59.43L118.918,59.43z"/>
	</g>
</g>
<g>
	<ellipse fill="#F4F1ED" cx="192.604" cy="64.436" rx="27" ry="9"/>
	<g>
		<path fill="#8E7B69" d="M218.979,64.436c-0.416,4.116-6.861,5.646-10.043,6.522c-5.291,1.456-10.871,1.792-16.332,1.853
			c-5.49,0.062-10.998-0.567-16.332-1.853c-3.182-0.767-9.635-2.483-10.043-6.522c-0.393-3.884,7.494-5.821,10.043-6.522
			c5.291-1.456,10.871-1.792,16.332-1.853c5.49-0.062,10.998,0.567,16.332,1.853C212.117,58.681,218.57,60.397,218.979,64.436
			c0.08,0.794,1.331,0.802,1.25,0c-0.321-3.173-3.367-5.004-6.085-6.102c-6.814-2.752-14.252-3.441-21.54-3.523
			c-7.217-0.081-14.813,0.806-21.54,3.523c-2.718,1.098-5.764,2.929-6.085,6.102c-0.305,3.018,3.898,5.219,6.085,6.102
			c6.814,2.753,14.252,3.442,21.54,3.524c7.217,0.081,14.813-0.807,21.54-3.524c2.718-1.098,5.764-2.929,6.085-6.102
			C220.31,63.634,219.059,63.642,218.979,64.436z"/>
	</g>
</g>
<g>
	<ellipse fill="#594C3E" cx="192.059" cy="63.777" rx="4.5" ry="1.5"/>
	<g>
		<path fill="#8E7B69" d="M195.956,63.611c-0.204,0.926-2.605,0.978-3.232,1.025c-1.363,0.102-2.865-0.025-4.125-0.582
			c-0.818-0.362,1.077-0.908,1.176-0.933c0.744-0.187,1.522-0.201,2.284-0.219c0.76-0.019,3.664-0.019,3.897,1.041
			c0.173,0.787,1.378,0.454,1.205-0.332c-0.416-1.892-3.657-1.924-5.103-1.959c-1.26-0.031-5.125,0.138-5.125,2.125
			c0,1.833,3.257,2.019,4.46,2.109c1.507,0.112,5.321,0.083,5.768-1.943C197.334,63.157,196.129,62.824,195.956,63.611z"/>
	</g>
</g>
<g>
	<path fill="#F4F1ED" d="M219.604,64.436V91.45c0,4.97-12.09,9-27,9s-27-4.03-27-9V64.436c0,4.97,12.09,9,27,9
		S219.604,69.406,219.604,64.436z"/>
	<g>
		<path fill="#8E7B69" d="M218.979,64.436c0,7.138,0,14.285,0,21.429c0,3.587,0.739,6.707-2.546,9.077
			c-6.36,4.59-16.37,4.799-23.829,4.883c-7.646,0.086-16.135-0.74-22.998-4.373c-3.945-2.088-3.377-5.063-3.377-8.79
			c0-7.409,0-14.822,0-22.226c-0.417,0-0.833,0-1.25,0c0.321,3.173,3.367,5.004,6.085,6.102c6.814,2.753,14.252,3.442,21.54,3.524
			c7.217,0.081,14.813-0.807,21.54-3.524c2.718-1.098,5.764-2.929,6.085-6.102C220.31,63.634,219.059,63.642,218.979,64.436
			c-0.416,4.116-6.861,5.646-10.043,6.522c-5.291,1.456-10.871,1.792-16.332,1.853c-5.49,0.062-10.998-0.567-16.332-1.853
			c-3.182-0.767-9.635-2.483-10.043-6.522c-0.079-0.786-1.25-0.821-1.25,0c0,8.478,0,16.968,0,25.449
			c0,11.073,20.203,11.107,27.625,11.19c6.848,0.077,27.625-0.231,27.625-10.731c0-8.634,0-17.276,0-25.908
			C220.229,63.63,218.979,63.63,218.979,64.436z"/>
	</g>
</g>
<path fill="none" stroke="#666766" stroke-miterlimit="10" stroke-dasharray="4,2" d="M0,72.712L18,72c0,0,9,0,9-9s0-36,0-36v-9
	c0,0,0-9,9-9s45,0,45,0s9,0,9,9c0,13.456,0,8.911,0,13.456"/>
<path fill="none" stroke="#666766" stroke-miterlimit="10" stroke-dasharray="4,2" d="M90,107.474v10.599c0,0,0,15.847,9,15.847
	s90,0,90,0s9,0,9-9s0-18,0-18"/>
<path fill="none" stroke="#666766" stroke-miterlimit="10" stroke-dasharray="4,2" d="M189,51.666V26.292c0,0,0-8.458,9-8.458
	s54,0,54,0s9,0,9,8.458c0,8.458,0,42.288,0,42.288s0,8.463,9,8.463s18,0,18,0"/>
</svg>
