<?xml version="1.0" encoding="utf-8"?>
<!-- Generator: Adobe Illustrator 16.2.0, SVG Export Plug-In . SVG Version: 6.00 Build 0)  -->
<!DOCTYPE svg PUBLIC "-//W3C//DTD SVG 1.1//EN" "http://www.w3.org/Graphics/SVG/1.1/DTD/svg11.dtd">
<svg version="1.1" id="Layer_1" xmlns="http://www.w3.org/2000/svg" xmlns:xlink="http://www.w3.org/1999/xlink" x="0px" y="0px"
	 width="288px" height="144px" viewBox="0 0 288 144" enable-background="new 0 0 288 144" xml:space="preserve">
<path fill="#DAF1FD" d="M26.139,69.945C14.298,79.75,2.627,99.793,6.053,106.644c3.426,6.851,10.847,15.536,31.785,17.96
	c20.938,2.424,28.779,3.665,37.82,8.145c9.041,4.479,31.655-0.485,53.335-4.332c21.674-3.848,25.091-1.228,37.144,1.32
	c12.054,2.548,26.39-3.63,47.203-4.774c20.813-1.145,52.11-7.437,52.521-8.919s22.281-24.68,16.161-30.53
	s-19.244-20.492-39.627-23.295c-20.382-2.804-87.711-4.854-98.277-5.628c-10.562-0.775-34.346-2.627-52.106-0.213
	C74.25,58.791,36.15,61.651,26.139,69.945z"/>
<g>
	<g>
		<g>
			<path fill="#FFFFFF" d="M173.113,101.003c5.192,3.29,10.617,5.535,16.756,6.183c6.001,0.632,11.808-2.844,16.786-5.725
				c9.992-5.783,18.021-14.936,25.253-23.778c5.799-7.091,9.709-17.781,4.513-26.154c-3.321-5.35-9.486-8.914-14.635-12.476
				c-5.626-3.892-15.726-10.376-22.752-6.22c-4.493,2.658-5.934,5.367-9.318,8.369c-4.409,3.912-9.105,7.477-13.913,10.879
				c-2.619,1.854-5.056,3.682-6.781,6.436c-2.353,3.755-3.267,8.621-4.783,12.724c-1.796,4.857-2.857,9.542-0.763,14.498
				C165.603,90.771,168.339,97.745,173.113,101.003c4.007,2.734,7.754-3.769,3.785-6.477c0.354,0.242,0.12,0.109-0.453-0.528
				c-0.746-0.831-1.3-1.899-1.873-2.852c-2.573-4.28-5.694-9.048-4.382-14.16c1.72-6.697,3.586-14.291,9.397-18.429
				c6.488-4.62,13.762-9.377,18.966-15.477c0.419-0.492,0.813-1.014,1.154-1.563c0.297-0.478-0.539,0.438,0.515-0.446
				c2.451-2.058,4.242-2.139,7.259-1.233c6.135,1.842,11.751,6.346,16.696,10.286c2.037,1.624,4.208,3.05,5.767,5.189
				c3.067,4.208,0.82,9.574-1.233,13.734c-1.917,3.883-5.279,6.987-8.133,10.169c-3.663,4.085-7.336,8.063-11.574,11.565
				c-4.285,3.54-9.558,6.562-14.765,8.491c-5.7,2.113-12.714-1.814-17.341-4.747C172.8,91.93,169.041,98.422,173.113,101.003z"/>
		</g>
	</g>
	<g>
		<g>
			<path fill="#FFFFFF" d="M194.212,49.647c3.225,0,3.225-5,0-5S190.987,49.647,194.212,49.647L194.212,49.647z"/>
		</g>
	</g>
	<g>
		<g>
			<path fill="#FFFFFF" d="M180.342,80.606c5.585,1.266,11.666,0.213,17.13-1.071c6.223-1.462,13.234-3.897,18.542-7.611
				c3.932-2.75,0.188-9.255-3.785-6.476c-3.899,2.727-8.589,4.349-13.067,5.802c-5.044,1.637-11.467,3.338-16.825,2.123
				C177.626,72.307,175.626,79.537,180.342,80.606L180.342,80.606z"/>
		</g>
	</g>
	<g>
		<g>
			<path fill="#FFFFFF" d="M183.004,83.369c9.737-0.811,20.056-2.034,29.104-5.992c4.422-1.935,0.601-8.395-3.785-6.476
				c1.407-0.616-0.443,0.147-0.822,0.284c-1.682,0.608-3.405,1.095-5.131,1.561c-6.328,1.707-12.847,2.581-19.366,3.124
				C178.22,76.268,178.182,83.771,183.004,83.369L183.004,83.369z"/>
		</g>
	</g>
	<g>
		<g>
			<path fill="#FFFFFF" d="M183.435,86.404c4.924-0.194,9.846-0.568,14.735-1.175c5.956-0.738,13.877-1.461,19.15-4.523
				c4.18-2.428,0.405-8.91-3.785-6.477c-1.722,1-4.697,1.289-6.734,1.754c-3.281,0.747-6.549,1.488-9.891,1.902
				c-4.465,0.554-8.98,0.841-13.476,1.019C178.615,79.095,178.597,86.596,183.435,86.404L183.435,86.404z"/>
		</g>
	</g>
	<g>
		<g>
			<path fill="#FFFFFF" d="M210.535,59.563c0.929,3.5,1.919,6.982,2.876,10.475c0.502,1.835,1.208,3.799,1.044,5.464
				c-0.476,4.813,7.029,4.767,7.5,0c0.193-1.958-0.434-4.058-0.909-5.939c-1.015-4.017-2.216-7.989-3.278-11.994
				C216.528,52.899,209.293,54.883,210.535,59.563L210.535,59.563z"/>
		</g>
	</g>
	<g>
		<g>
			<path fill="#FFFFFF" d="M213.403,58.203c0.965,4.01,1.811,8.044,2.565,12.098c0.382,2.048,1.133,4.462,0.938,6.572
				c-0.442,4.817,7.062,4.774,7.5,0c0.22-2.391-0.603-5.15-1.012-7.49c-0.772-4.419-1.711-8.813-2.76-13.174
				C219.505,51.508,212.273,53.502,213.403,58.203L213.403,58.203z"/>
		</g>
	</g>
	<g>
		<g>
			<path fill="#FFFFFF" d="M216.71,59.069c0.731,4.373,2.912,9.887,1.889,14.333c-1.083,4.708,6.147,6.706,7.232,1.994
				c1.387-6.024-0.898-12.396-1.889-18.322C223.146,52.313,215.92,54.339,216.71,59.069L216.71,59.069z"/>
		</g>
	</g>
	<g>
		<g>
			<path fill="#FFFFFF" d="M197.185,61.326c-0.753,3.574-2.014,7.062-3.695,10.306c-2.222,4.287,4.25,8.081,6.477,3.785
				c1.968-3.797,3.569-7.911,4.451-12.097C205.411,58.602,198.182,56.594,197.185,61.326L197.185,61.326z"/>
		</g>
	</g>
	<g>
		<g>
			<path fill="#FFFFFF" d="M201.061,58.761c-0.44,3.689-1.769,7.5-3.771,10.643c-2.606,4.092,3.887,7.85,6.477,3.786
				c2.742-4.305,4.195-9.409,4.795-14.429c0.243-2.035-1.89-3.75-3.75-3.75C202.583,55.011,201.303,56.731,201.061,58.761
				L201.061,58.761z"/>
		</g>
	</g>
	<g>
		<g>
			<path fill="#FFFFFF" d="M177.101,87.172c3.912,8.027,14.31,12.308,22.745,13.483c4.729,0.659,6.768-6.567,1.994-7.232
				c-6.534-0.91-15.197-3.746-18.263-10.036C181.458,79.039,174.991,82.843,177.101,87.172L177.101,87.172z"/>
		</g>
	</g>
	<g>
		<g>
			<path fill="#FFFFFF" d="M177.358,92.278c6.492,5.777,13.064,9.397,21.805,10.229c4.815,0.458,4.771-7.047,0-7.5
				c-6.628-0.63-11.614-3.683-16.502-8.031C179.062,83.772,173.738,89.058,177.358,92.278L177.358,92.278z"/>
		</g>
	</g>
	<g>
		<g>
			<path fill="#FFFFFF" d="M195.504,51.447c6.622-1.202,14.881-1.823,21.258,0.702c4.502,1.782,6.436-5.474,1.994-7.232
				c-7.622-3.018-17.362-2.133-25.246-0.702C188.756,45.077,190.776,52.305,195.504,51.447L195.504,51.447z"/>
		</g>
	</g>
	<g>
		<g>
			<path fill="#FFFFFF" d="M199.767,47.996c5.649,0.058,12.185-0.059,17.67,1.479c4.666,1.309,6.644-5.928,1.994-7.232
				c-6.11-1.714-13.372-1.682-19.664-1.747C194.928,40.446,194.933,47.946,199.767,47.996L199.767,47.996z"/>
		</g>
	</g>
	<g>
		<g>
			<path fill="#FFFFFF" d="M182.729,84.101c3.238,10.593,6.476,21.187,9.713,31.78c0.544,1.778,2.679,3.404,4.613,2.619
				c0.632-0.257,1.264-0.514,1.896-0.77c1.818-0.738,3.31-2.503,2.619-4.613c-2.023-6.184-4.048-12.368-6.071-18.552
				c-1.627-4.972-2.416-13.575-8.156-15.078c-4.684-1.226-6.669,6.009-1.994,7.232c0.532,0.14,1.064,0.278,1.597,0.418
				c-0.873-0.873-1.746-1.746-2.619-2.619c3.337,10.197,6.675,20.395,10.012,30.593c0.873-1.538,1.746-3.075,2.619-4.613
				c-0.632,0.257-1.264,0.514-1.896,0.77c1.538,0.873,3.075,1.746,4.613,2.619c-3.238-10.593-6.476-21.187-9.713-31.78
				C188.552,77.495,181.312,79.463,182.729,84.101z"/>
		</g>
	</g>
	<g>
		<g>
			<path fill="#FFFFFF" d="M185.661,83.086c0.366,8.249,0.733,16.497,1.1,24.746c1.582-1.205,3.165-2.411,4.747-3.616
				c-0.516-0.135-1.03-0.27-1.545-0.404c0.918,1.205,1.835,2.411,2.753,3.616c-0.258-7.935-0.517-15.87-0.774-23.805
				c-0.366,0.884-0.732,1.768-1.099,2.651c0.256-0.219,0.512-0.438,0.767-0.656c3.68-3.149-1.65-8.43-5.303-5.303
				c-3.157,2.702-1.694,8.575-1.574,12.262c0.161,4.95,0.322,9.9,0.483,14.851c0.054,1.658,1.103,3.185,2.753,3.616
				c0.516,0.135,1.03,0.27,1.545,0.404c2.274,0.595,4.857-1.14,4.747-3.616c-0.366-8.249-0.733-16.497-1.1-24.746
				C192.947,78.27,185.446,78.249,185.661,83.086L185.661,83.086z"/>
		</g>
	</g>
	<g>
		<g>
			<path fill="#FFFFFF" d="M201.096,87.992c0.171,0.183,0.335,0.371,0.499,0.561c0.183,0.211,0.357,0.428,0.533,0.644
				c-0.479-0.591,0.435,0.608,0.515,0.723c0.583,0.833,1.082,1.718,1.518,2.635c-0.197-0.415,0.247,0.854,0.214,0.74
				c0.06,0.208,0.08,0.763,0.134,0.399c-0.302,2.021,0.474,4.022,2.619,4.613c1.79,0.492,4.311-0.595,4.613-2.619
				c0.741-4.954-2.049-9.495-5.342-12.998C203.08,79.158,197.787,84.472,201.096,87.992L201.096,87.992z"/>
		</g>
	</g>
	<g>
		<g>
			<path fill="#FFFFFF" d="M203.96,87.627c-0.494-0.375,0.734,0.754,0.92,0.949c0.579,0.609,0.909,1.032,1.367,1.673
				c0.996,1.395,1.528,2.174,1.734,3.392c0.341,2.018,2.795,3.119,4.613,2.619c2.118-0.583,2.959-2.6,2.619-4.613
				c-0.686-4.055-4.317-8.105-7.469-10.496c-1.633-1.238-4.19-0.259-5.131,1.346C201.487,84.42,202.335,86.394,203.96,87.627
				L203.96,87.627z"/>
		</g>
	</g>
	<g>
		<g>
			<path fill="#FFFFFF" d="M203.551,88.528c1.316,2.005,2.217,3.744,2.815,5.956c1.263,4.663,8.498,2.682,7.232-1.994
				c-0.743-2.746-2.014-5.374-3.571-7.747c-1.12-1.705-3.298-2.419-5.131-1.346C203.202,84.39,202.428,86.817,203.551,88.528
				L203.551,88.528z"/>
		</g>
	</g>
	<g>
		<g>
			<path fill="#FFFFFF" d="M207.541,86.066c0.721,1.104,1.482,2.181,2.188,3.295c0.202,0.319,0.749,1.599,0.245,0.303
				c0.056,0.142,0.089,0.29,0.119,0.439c-0.034-0.238-0.069-0.476-0.104-0.713c-0.007,0.38,0.027,0.19,0.104-0.568
				c-0.282,2.023,0.459,4.019,2.619,4.613c1.775,0.488,4.33-0.591,4.613-2.619c0.246-1.761,0.036-3.106-0.794-4.686
				c-0.708-1.348-1.682-2.578-2.513-3.85c-1.116-1.708-3.301-2.417-5.131-1.346C207.189,81.93,206.422,84.354,207.541,86.066
				L207.541,86.066z"/>
		</g>
	</g>
	<g>
		<g>
			<path fill="#FFFFFF" d="M197.83,97.252c2.872-0.449,5.88-0.835,8.638-1.779c4.548-1.558,2.595-8.803-1.994-7.232
				c-2.758,0.944-5.765,1.33-8.638,1.779c-2.022,0.316-3.114,2.813-2.619,4.613C193.805,96.769,195.813,97.567,197.83,97.252
				L197.83,97.252z"/>
		</g>
	</g>
	<g>
		<g>
			<path fill="#FFFFFF" d="M192.656,96.687c1.912,0.086,3.838-0.105,5.731-0.349c1.897-0.243,3.755-0.606,5.616-1.046
				c0.638-0.15,1.276-0.293,1.916-0.431c1.412-0.305-0.179-0.02-0.812-0.188c-0.873-1.537-1.746-3.075-2.619-4.613
				c-0.002,0.006-0.004,0.012-0.006,0.017c0.575-0.747,1.149-1.494,1.724-2.241c-0.401,0.269,1.008-0.401,0.719-0.294
				c-4.491,1.671-2.549,8.922,1.994,7.232c1.37-0.51,2.291-1.248,2.802-2.72c0.666-1.92-0.74-4.114-2.619-4.613
				c-2.129-0.564-4.951,0.597-6.984,1.054c-2.418,0.545-4.98,0.803-7.462,0.691C187.819,88.97,187.84,96.471,192.656,96.687
				L192.656,96.687z"/>
		</g>
	</g>
	<g>
		<g>
			<path fill="#FFFFFF" d="M192.011,94.104c4.175-0.133,8.546-0.167,12.637-1.07c4.722-1.043,2.719-8.273-1.994-7.232
				c-2.988,0.66-7.14,0.69-10.643,0.803C187.187,86.759,187.172,94.259,192.011,94.104L192.011,94.104z"/>
		</g>
	</g>
	<g>
		<g>
			<path fill="#FFFFFF" d="M215.795,90.765c3.521-0.636,6.852-3.237,7.862-6.757c0.563-1.964-0.666-4.076-2.619-4.613
				c-1.987-0.546-4.049,0.656-4.613,2.619c-0.221,0.769,0.335-0.725,0.162-0.347c-0.166,0.363-1.028,1.532-0.211,0.502
				c-0.162,0.204-0.346,0.39-0.531,0.572c-0.104,0.099-0.21,0.192-0.319,0.283c0.81-0.694,0.229-0.192,0.008-0.052
				c-0.196,0.124-1.219,0.551-0.275,0.184c-0.469,0.183-0.964,0.287-1.457,0.376c-2.014,0.363-3.124,2.778-2.619,4.613
				C211.76,90.247,213.785,91.127,215.795,90.765L215.795,90.765z"/>
		</g>
	</g>
	<g>
		<g>
			<path fill="#FFFFFF" d="M182.528,96.36c0.396-9.789,3.253-20.039,8.83-28.115c2.756-3.991-3.748-7.736-6.477-3.785
				c-6.313,9.14-9.407,20.849-9.854,31.9C174.833,101.198,182.334,101.18,182.528,96.36L182.528,96.36z"/>
		</g>
	</g>
	<g>
		<g>
			<path fill="#FFFFFF" d="M180.271,94.455c0.877-9.957,2.997-21.283,8.856-29.552c2.803-3.956-3.705-7.696-6.477-3.785
				c-6.628,9.353-8.891,22.106-9.88,33.337C172.346,99.274,179.85,99.233,180.271,94.455L180.271,94.455z"/>
		</g>
	</g>
	<g>
		<g>
			<path fill="#FFFFFF" d="M177.44,92.232c1.161-5.188,2.486-10.342,3.901-15.466c1.87-6.77,3.56-14.948,7.852-20.678
				c2.902-3.875-3.614-7.607-6.477-3.785c-4.453,5.946-6.308,14.383-8.306,21.395c-1.559,5.468-2.961,10.991-4.203,16.54
				C169.153,94.95,176.384,96.951,177.44,92.232L177.44,92.232z"/>
		</g>
	</g>
	<g>
		<g>
			<path fill="#FFFFFF" d="M175.877,88.201c0.857-4.467,1.896-8.901,3.025-13.307c1.435-5.594,2.779-13.576,6.813-17.987
				c3.257-3.561-2.032-8.879-5.303-5.304c-4.614,5.044-6.403,12.737-8.171,19.144c-1.406,5.095-2.601,10.268-3.598,15.459
				C167.737,90.933,174.966,92.947,175.877,88.201L175.877,88.201z"/>
		</g>
	</g>
	<g>
		<g>
			<path fill="#FFFFFF" d="M216.942,50.685c1.02,3.504,1.991,7.022,2.936,10.547c0.775,2.897,1.513,5.806,2.187,8.729
				c0.244,1.061,0.462,2.126,0.665,3.196c0.075,0.392,0.038,2.272,0.27,1.219c-1.035,4.714,6.194,6.717,7.232,1.994
				c0.962-4.379-1.269-9.96-2.339-14.145c-1.158-4.532-2.411-9.042-3.718-13.534C222.827,44.056,215.589,46.03,216.942,50.685
				L216.942,50.685z"/>
		</g>
	</g>
	<g>
		<g>
			<path fill="#FFFFFF" d="M219.816,52.233c0.934,1.434,1.809,2.906,2.653,4.393c0.699,1.231,1.351,2.488,1.948,3.771
				c0.196,0.424,0.336,0.837,0.489,1.292c0.081,0.25,0.15,0.503,0.21,0.76c-0.028-0.427-0.032-0.439-0.012-0.036
				c0.21,4.817,7.711,4.837,7.5,0c-0.216-4.933-3.69-9.939-6.313-13.966C223.665,44.413,217.169,48.167,219.816,52.233
				L219.816,52.233z"/>
		</g>
	</g>
	<g>
		<g>
			<path fill="#FFFFFF" d="M219.88,54.44c2.564,4.395,5.082,9.841,4.481,15.025c-0.557,4.799,6.95,4.745,7.5,0
				c0.742-6.405-2.337-13.38-5.505-18.81C223.921,46.481,217.438,50.254,219.88,54.44L219.88,54.44z"/>
		</g>
	</g>
	<g>
		<g>
			<path fill="#FFFFFF" d="M168.037,30.735c4.101,15.417,8.177,30.841,12.265,46.262c0.331,1.248,1.368,2.291,2.619,2.619
				c0.552,0.145,1.104,0.289,1.655,0.434c2.812,0.736,5.301-1.833,4.613-4.613c-3.797-15.344-7.595-30.689-11.392-46.034
				c-0.309-1.247-1.385-2.296-2.619-2.619c-0.843-0.22-1.686-0.441-2.528-0.662c-4.684-1.226-6.669,6.009-1.994,7.232
				c0.843,0.22,1.686,0.441,2.528,0.662c-0.873-0.873-1.746-1.746-2.619-2.619c3.798,15.344,7.595,30.689,11.392,46.034
				c1.538-1.538,3.075-3.075,4.613-4.613c-0.552-0.145-1.104-0.289-1.655-0.434c0.873,0.873,1.746,1.746,2.619,2.619
				c-4.088-15.42-8.165-30.844-12.265-46.262C174.027,24.072,166.793,26.055,168.037,30.735z"/>
		</g>
	</g>
	<g>
		<g>
			<path fill="#FFFFFF" d="M185.227,10.363c-0.187,22.122-0.373,44.243-0.56,66.364c-0.014,1.65,1.152,3.196,2.753,3.616
				c0.422,0.11,0.844,0.221,1.266,0.332c2.393,0.628,4.696-1.164,4.747-3.616c0.455-22.051,0.909-44.103,1.364-66.154
				c0.034-1.647-1.167-3.201-2.753-3.616c-0.69-0.181-1.381-0.361-2.07-0.542c-4.684-1.226-6.669,6.008-1.994,7.232
				c0.69,0.181,1.381,0.361,2.07,0.542c-0.918-1.206-1.835-2.411-2.753-3.616c-0.455,22.051-0.909,44.103-1.364,66.154
				c1.582-1.205,3.165-2.411,4.747-3.616c-0.422-0.11-0.844-0.221-1.266-0.332c0.918,1.205,1.835,2.411,2.753,3.616
				c0.187-22.122,0.373-44.243,0.56-66.364C192.768,5.525,185.268,5.529,185.227,10.363z"/>
		</g>
	</g>
	<g>
		<g>
			<path fill="#FFFFFF" d="M171.823,29.703c0.279-0.689,0.56-1.379,0.839-2.069c0.466-0.332,0.512-0.381,0.14-0.148
				c-0.362,0.18-0.362,0.182,0.002,0.004c-0.233,0.078-0.47,0.144-0.71,0.198c-1.111,0.282,0.623-0.001-0.396,0.042
				c-0.46-0.021-0.404-0.001,0.167,0.061c0.376,0.143,0.714,0.348,1.015,0.617c0.321,0.551,0.643,1.103,0.964,1.655
				c-0.253,0.979-0.506,1.958-0.759,2.938c-0.466,0.332-0.513,0.381-0.14,0.148c0.362-0.18,0.362-0.182-0.001-0.004
				c0.233-0.078,0.47-0.144,0.71-0.198c1.111-0.281-0.624,0.001,0.395-0.042c0.46,0.021,0.404,0-0.168-0.061
				c-0.375-0.143-0.713-0.349-1.014-0.617c-0.321-0.552-0.643-1.104-0.964-1.655c0.018,0.042,0.036,0.085,0.054,0.128
				c0.794,1.882,2.447,3.215,4.613,2.619c1.777-0.489,3.415-2.726,2.619-4.613c-0.62-1.469-1.51-2.588-3.098-3.034
				c-1.387-0.389-2.667-0.243-4.063-0.033c-2.604,0.392-5.707,2.335-5.604,5.292c0.238,6.848,13.112,4.924,12.899-1.228
				c-0.07-2.042-1.652-3.75-3.75-3.75C173.582,25.953,171.753,27.659,171.823,29.703z"/>
		</g>
	</g>
	<g>
		<g>
			<path fill="#FFFFFF" d="M189.103,10.505c0.436-0.585,0.87-1.171,1.306-1.756c0.541-0.214,0.599-0.261,0.172-0.14
				c0.885-0.212-0.464-0.041-0.719-0.054c0.719,0.038-0.29-0.085-0.397-0.114c-0.427-0.146-0.388-0.126,0.117,0.059
				c0.327,0.22,0.603,0.492,0.827,0.818c0.171,0.631,0.341,1.262,0.512,1.893c-0.484,0.871-0.969,1.742-1.453,2.613
				c-0.541,0.215-0.599,0.261-0.172,0.141c-0.886,0.211,0.464,0.041,0.719,0.054c-0.72-0.038,0.288,0.085,0.396,0.114
				c0.427,0.146,0.388,0.126-0.117-0.06c-0.328-0.219-0.604-0.492-0.827-0.818c-0.171-0.631-0.342-1.262-0.512-1.893
				c0.005,0.047,0.01,0.093,0.015,0.14c0.219,2.032,1.54,3.75,3.75,3.75c1.878,0,3.969-1.713,3.75-3.75
				c-0.358-3.326-3.048-4.635-6.078-4.945c-2.689-0.275-6.069,0.534-6.852,3.516c-1.723,6.569,11.22,8.437,12.796,2.426
				c0.518-1.976-0.632-4.066-2.619-4.613C191.764,7.349,189.621,8.529,189.103,10.505z"/>
		</g>
	</g>
</g>
<g>
	<g>
		<path fill="#FFFFFF" d="M72.617,57.856c3.637-8.326,8.573-18.204,18.904-18.445c5.555-0.129,10.799,2.929,16.315,3.509
			c4.315,0.454,8.525,0.094,12.662-1.23c2.499-0.8,4.187-2.114,6.231-1.196c2.401,1.078,4.543,2.844,6.488,4.585
			c0.495,0.443,0.6,3.33,0.663,4.623c0.368,7.532-3.177,16.281,1.455,23.169c1.115,1.658,2.584,5.751,0.005,6.49
			c-3.092,0.888-6.536,0.897-9.697,1.756c-2.752,0.747-5.43,1.825-8.048,2.947c-3.48,1.492-5.297,1.84-9.098,1.396
			c-3.941-0.46-7.862-1.404-11.72-2.31c-0.837-0.196-1.671-0.402-2.505-0.613c0.354,0.09,0.866,0.462-0.279-0.3
			c-2.491-1.658-4.983-3.317-7.475-4.976c-4.701-3.129-9.402-6.257-14.103-9.386c0.619,1.079,1.238,2.159,1.857,3.238
			c-0.381-5.05-0.763-10.101-1.145-15.151c-0.362-4.792-7.865-4.827-7.5,0c0.203,2.69,0.406,5.379,0.609,8.069
			c0.188,2.482-0.278,6.712,1.047,8.975c0.9,1.538,3.286,2.638,4.708,3.583c3.312,2.205,6.624,4.409,9.936,6.613
			c3.866,2.573,7.602,5.908,12.172,7.018c6.372,1.546,15.737,4.785,22.216,2.539c5.53-1.918,10.492-4.448,16.327-5.572
			c4.442-0.856,9.706-0.971,11.101-6.367c2.045-7.911-4.881-14.063-3.021-22.129c0.922-4.003,0.835-8.258,0.403-12.319
			c-0.48-4.512-2.329-6.659-5.924-9.331c-3.17-2.357-7.131-5.162-11.304-4.396c-3.023,0.554-5.808,2.086-8.838,2.724
			c-5.913,1.246-11.585-1.127-17.178-2.626c-4.643-1.244-9.665-1.1-14.167,0.57c-8.96,3.324-13.972,12.507-17.575,20.758
			C64.225,58.458,70.685,62.279,72.617,57.856z"/>
	</g>
</g>
<g>
	<g>
		<path fill="#FFFFFF" d="M102.461,50.23c3.879,0.636,7.358,0.314,11.169-0.577c1.62-0.379,7.758-1.838,8.905-0.23
			c2.782,3.901,9.291,0.162,6.476-3.785c-6.04-8.468-16.533-1.324-24.555-2.64C99.726,42.222,97.698,49.449,102.461,50.23
			L102.461,50.23z"/>
	</g>
</g>
<g>
	<path fill="#EFE6DA" d="M69.375,55.977c5.726-13.337,13.667-24.537,30.466-18.733c16.799,5.804,22.5-1.934,26.369-0.916
		s8.756,5.192,10.182,6.618c1.425,1.425,1.629,11.709,0.712,14.763c-0.917,3.054-0.306,10.889,1.222,12.923
		c1.527,2.034,5.188,11.909-3.156,12.52c-8.349,0.611-15.984,4.276-19.853,6.007c-3.869,1.731-22.297-3.054-22.297-3.054
		l-22.5-14.976L69.375,55.977z"/>
	<g>
		<path fill="#8E7B69" d="M70.455,56.607c4.652-10.651,11.443-21.42,24.688-19.331c5.688,0.897,10.719,3.318,16.597,3.395
			c3.766,0.05,7.35-1.054,10.823-2.387c4.557-1.75,8.286,1.513,11.712,4.407c3.296,2.784,2.426,10.151,1.784,14.031
			c-0.665,4.02-0.741,7.764,0.099,11.793c0.734,3.521,3.116,5.862,3.023,9.741c-0.097,4.082-5.003,3.7-7.868,4.124
			c-3.26,0.481-6.434,1.548-9.518,2.674c-4.407,1.609-7.511,3.497-12.311,3.036c-5.174-0.497-13.274-1.363-17.137-3.934
			c-5.944-3.957-11.888-7.913-17.833-11.87c-0.921-0.613-1.841-1.226-2.762-1.838c-1.283-0.854,0.073,1.4-0.035-0.026
			c-0.279-3.697-0.559-7.393-0.838-11.09c-0.084-1.119-0.169-2.237-0.253-3.356c-0.121-1.597-2.622-1.609-2.5,0
			c0.203,2.69,0.406,5.38,0.609,8.07c0.152,2.01-0.356,5.9,0.706,7.713c0.668,1.141,2.774,1.997,3.811,2.687
			c3.312,2.204,6.624,4.408,9.936,6.612c3.664,2.439,7.245,5.715,11.575,6.766c5.882,1.428,14.891,4.618,20.887,2.539
			c5.536-1.919,10.493-4.448,16.327-5.572c3.386-0.652,8.244-0.327,9.354-4.62c0.706-2.73,0.244-5.577-0.866-8.146
			c-1.958-4.529-3.322-8.927-2.155-13.984c0.872-3.78,0.721-7.825,0.313-11.655c-0.383-3.6-1.811-5.035-4.686-7.172
			c-2.447-1.819-6.04-4.757-9.377-4.145c-3.023,0.554-5.808,2.086-8.838,2.725c-10.839,2.283-20.563-6.056-31.345-2.056
			c-8.247,3.059-12.797,12.09-16.081,19.608C67.658,56.808,69.811,58.082,70.455,56.607z"/>
	</g>
</g>
<g>
	<g>
		<path fill="#FFFFFF" d="M83.854,49.38c-9.613-1.951-20.055-0.261-29.484,1.942c-3.649,0.853-7.404,1.957-10.682,3.813
			c-4.326,2.45-4.824,6.805-4.189,11.259c0.443,3.107,0.9,5.549-0.167,8.614c-0.82,2.355-1.564,4.628-1.782,7.138
			c-0.45,5.188,0.644,10.506,3.968,14.634c5.094,6.326,12.552,7.337,20.163,8.292c9.053,1.135,18.327,1.303,27.424,0.671
			c7.163-0.498,12.424-1.517,17.727-6.457c6.941-6.468,14.828-15.96,12.222-26.11c-2.296-8.944-12.862-12.679-20.326-15.963
			C93.41,54.874,89.7,50.905,83.854,49.38c-4.685-1.222-6.67,6.013-1.994,7.232c4.486,1.169,7.376,3.72,11.181,6.129
			c2.505,1.586,5.561,2.481,8.25,3.709c3.466,1.582,7.165,3.533,9.465,6.67c3.091,4.22,0.3,9.164-2.167,12.899
			c-3.444,5.216-8.005,10.509-14.297,11.642c-7.036,1.268-14.5,1.037-21.61,0.768c-6.802-0.257-13.849-0.738-20.391-2.747
			c-3.324-1.021-5.638-3.858-6.769-7.069c-1.823-5.179,0.831-9.589,1.849-14.511c0.412-1.991,0.271-4.054-0.027-6.047
			c-0.238-1.588-1.263-4.283-0.569-5.835c1.015-2.271,7.574-3.164,9.589-3.666c7.958-1.981,17.343-3.597,25.496-1.942
			C86.582,57.57,88.592,50.342,83.854,49.38z"/>
	</g>
</g>
<g>
	<path fill="#EFE6DA" d="M82.997,52.826c-10.123-2.309-32.478,1.935-37.772,5.702s1.018,9.875-2.138,17.308
		c-3.156,7.433-2.545,16.696,5.192,21.89c7.737,5.192,47.647,6.008,53.043,1.426s17.207-15.985,14.254-25.148
		c-2.952-9.163-17.308-12.421-20.973-14.966S88.8,54.15,82.997,52.826z"/>
	<g>
		<path fill="#8E7B69" d="M83.33,51.621c-9.148-1.856-19.188-0.152-28.155,1.942c-6.888,1.609-14.33,3.555-13.125,11.998
			c0.506,3.548,1.054,6.435-0.167,9.943c-0.742,2.132-1.495,4.197-1.692,6.473c-0.388,4.474,0.334,9.264,3.236,12.867
			c4.664,5.791,11.394,6.681,18.395,7.559c9.053,1.136,18.327,1.303,27.424,0.672c6.468-0.449,11.185-1.276,15.959-5.726
			c6.207-5.784,13.934-14.503,11.58-23.678c-2.089-8.141-12.454-11.511-19.178-14.469C92.488,56.95,88.939,53.084,83.33,51.621
			c-1.562-0.407-2.224,2.004-0.665,2.411c4.722,1.231,7.787,3.854,11.778,6.381c2.505,1.587,5.561,2.482,8.25,3.709
			c3.917,1.788,7.777,4.04,10.362,7.567c3.657,4.991,0.789,10.949-2.167,15.423c-3.76,5.693-8.887,11.548-15.792,12.791
			c-7.269,1.309-14.927,1.134-22.275,0.856c-7.016-0.266-14.309-0.765-21.055-2.836c-4.193-1.288-7.085-4.756-8.515-8.815
			c-1.998-5.675,0.735-10.456,1.849-15.841c0.833-4.024-2.025-8.717-0.344-12.48c1.379-3.088,8.264-4.113,11.083-4.814
			c8.42-2.096,18.204-3.691,26.826-1.942C84.239,54.351,84.909,51.941,83.33,51.621z"/>
	</g>
</g>
<g>
	<g>
		<path fill="#8E7B69" d="M81.251,73.639c1.111,0.885,1.458,2.336,1.596,3.692c0.085,0.844,0.245,3.015-0.704,3.469
			c-1.09,0.521-0.139,2.139,0.946,1.619c1.504-0.72,1.656-2.902,1.667-4.341c0.015-2.006-0.541-4.458-2.18-5.765
			C81.642,71.569,80.306,72.885,81.251,73.639L81.251,73.639z"/>
	</g>
</g>
<g>
	<g>
		<path fill="#8E7B69" d="M52.507,90.357c2.708,3.94,7.901,5.848,12.468,4.334c1.142-0.379,0.653-2.189-0.498-1.809
			c-3.737,1.239-8.104-0.202-10.351-3.473C53.446,88.421,51.82,89.357,52.507,90.357L52.507,90.357z"/>
	</g>
</g>
<g>
	<g>
		<path fill="#8E7B69" d="M45.247,85.218c1.799,4.688,5.078,9.104,10.643,8.503c1.189-0.128,1.202-2.005,0-1.875
			c-4.692,0.507-7.317-3.172-8.835-7.126C46.626,83.603,44.813,84.087,45.247,85.218L45.247,85.218z"/>
	</g>
</g>
<g>
	<g>
		<path fill="#8E7B69" d="M61.33,66.818c0.811-1.102,2.471-1.602,3.711-1.982c0.86-0.264,2.588-0.861,3.459-0.396
			c1.066,0.569,2.013-1.05,0.946-1.619c-1.438-0.767-3.443-0.201-4.904,0.207c-1.784,0.498-3.705,1.314-4.832,2.843
			C58.993,66.847,60.621,67.779,61.33,66.818L61.33,66.818z"/>
	</g>
</g>
<g>
	<g>
		<path fill="#8E7B69" d="M56.646,68.654c0.271,0.097,0.56,0.225,0.854,0.229c0.778,0.012,1.295-1.055,0.663-1.599
			c-1.027-0.881-3.244-0.825-4.471-0.698c-2.715,0.28-4.567,2.085-5.131,4.726c-0.252,1.177,1.556,1.679,1.808,0.498
			c0.435-2.033,1.681-3.241,3.773-3.39c0.648-0.047,1.307,0.008,1.946,0.121c0.234,0.042,0.466,0.098,0.697,0.157
			c0.353,0.092,0.527,0.318,0.053-0.088c0.221-0.533,0.442-1.066,0.663-1.599c0.459,0.007-0.181-0.1-0.356-0.163
			C56.004,66.436,55.518,68.246,56.646,68.654L56.646,68.654z"/>
	</g>
</g>
<g>
	<g>
		<path fill="#8E7B69" d="M103.206,47.531c3.358,0.551,6.383,0.193,9.673-0.576c3.203-0.749,9.806-2.127,12.08,1.062
			c0.695,0.976,2.323,0.041,1.619-0.946c-4.67-6.55-16.583-0.315-22.875-1.347C102.522,45.529,102.015,47.335,103.206,47.531
			L103.206,47.531z"/>
	</g>
</g>
<g>
	<g>
		<path fill="#8E7B69" d="M116.858,54.067c2.11,0.279,2.816,2.184,2.677,4.083c-0.088,1.207,1.787,1.198,1.875,0
			c0.224-3.057-1.442-5.546-4.552-5.958C115.663,52.034,115.678,53.911,116.858,54.067L116.858,54.067z"/>
	</g>
</g>
<g>
	<g>
		<path fill="#8E7B69" d="M119.478,78.762c2.527,0.985,7.784,0.383,7.67-3.298c-0.037-1.206-1.913-1.21-1.875,0
			c0.028,0.895-0.907,1.378-1.64,1.652c-1.205,0.451-2.486,0.294-3.657-0.163C118.848,76.514,118.364,78.327,119.478,78.762
			L119.478,78.762z"/>
	</g>
</g>
<g>
	<g>
		<path fill="#8E7B69" d="M118.918,59.43c1.633,0.437,3.322,0.483,3.832,2.32c0.267,0.964,0.73,3.977,0.072,4.547
			c-0.915,0.793,0.417,2.112,1.326,1.325c1.463-1.268,0.784-4.45,0.495-5.998c-0.541-2.89-2.724-3.333-5.226-4.001
			C118.247,57.31,117.751,59.119,118.918,59.43L118.918,59.43z"/>
	</g>
</g>
<g>
	<g>
		<path fill="#F19997" d="M175.621,97.691c7.217,4.772,15.539,7.254,21.442,4.675c11.339-4.952,17.794-10.38,25.598-19.237
			c7.805-8.859,9.633-9.707,12.593-19.182c2.959-9.484-5.207-14.539-7.303-16.149c-2.098-1.61-19.729-16.483-27.063-11.416
			c-7.333,5.067,0.983,0.257-12.638,11.372c-13.62,11.116-14.569,8.479-17.527,17.964c-2.96,9.474-5.924,12.8-2.861,19.317
			C172.891,95.732,174.906,97.217,175.621,97.691z"/>
		<g>
			<path fill="#9B5E58" d="M175.306,98.231c4.697,2.976,9.605,5.168,15.179,5.755c5.468,0.575,10.685-2.68,15.208-5.298
				c9.759-5.647,17.563-14.658,24.621-23.289c4.919-6.016,8.43-15.271,4.024-22.368c-2.852-4.594-9.146-8.333-13.515-11.355
				c-4.442-3.074-13.816-9.639-19.597-6.22c-3.584,2.12-5.619,5.16-8.686,7.88c-4.607,4.087-9.522,7.813-14.546,11.368
				c-2.159,1.528-4.236,3.042-5.66,5.314c-2.214,3.533-3.041,8.117-4.469,11.978c-1.444,3.908-2.796,8.024-1.077,12.09
				C168.639,88.465,171.094,95.353,175.306,98.231c0.668,0.456,1.292-0.628,0.631-1.08c-1.539-1.052-2.514-2.949-3.447-4.502
				c-3.05-5.072-6.247-10.528-4.696-16.568c1.968-7.669,4.232-15.597,10.833-20.297c6.281-4.472,13.297-9.085,18.333-14.988
				c3.305-3.873,6.658-5.64,11.969-4.045c6.673,2.004,12.702,6.81,18.074,11.089c2.284,1.82,4.509,3.424,6.256,5.822
				c3.769,5.17,1.298,11.762-1.233,16.889c-2.03,4.114-5.596,7.428-8.621,10.802c-3.664,4.085-7.336,8.063-11.575,11.564
				c-4.726,3.905-10.396,7.166-16.143,9.296c-6.502,2.409-14.424-1.688-19.749-5.062C175.254,96.719,174.627,97.801,175.306,98.231z
				"/>
		</g>
	</g>
	<path fill="#F19997" stroke="#9B5E58" stroke-width="0.25" stroke-miterlimit="10" d="M194.827,47.073"/>
	<g>
		<g>
			<path fill="#9B5E58" d="M181.821,77.399c4.996,1.132,10.522,0.075,15.401-1.071c5.97-1.402,12.667-3.718,17.766-7.284
				c0.524-0.367,0.025-1.234-0.504-0.863c-4.122,2.882-9.11,4.594-13.844,6.13c-5.65,1.834-12.58,3.478-18.554,2.123
				C181.459,76.293,181.192,77.257,181.821,77.399L181.821,77.399z"/>
		</g>
	</g>
	<g>
		<g>
			<path fill="#9B5E58" d="M183.619,80.046c9.118-0.759,18.981-1.838,27.464-5.55c0.59-0.258,0.08-1.119-0.504-0.863
				c-8.292,3.628-18.08,4.674-26.96,5.413C182.981,79.099,182.977,80.1,183.619,80.046L183.619,80.046z"/>
		</g>
	</g>
	<g>
		<g>
			<path fill="#9B5E58" d="M184.05,83.081c4.924-0.194,9.846-0.568,14.735-1.176c5.344-0.663,12.788-1.343,17.51-4.079
				c0.558-0.323,0.055-1.188-0.504-0.863c-2.15,1.245-5.132,1.537-7.512,2.079c-3.573,0.814-7.115,1.568-10.754,2.02
				c-4.465,0.555-8.98,0.842-13.476,1.02C183.407,82.106,183.404,83.106,184.05,83.081L184.05,83.081z"/>
		</g>
	</g>
	<g>
		<g>
			<path fill="#9B5E58" d="M214.284,58.625c0.929,3.5,1.919,6.983,2.876,10.476c0.542,1.98,1.365,4.247,1.16,6.33
				c-0.063,0.642,0.938,0.636,1,0c0.167-1.692-0.384-3.457-0.793-5.077c-1.015-4.017-2.216-7.989-3.278-11.994
				C215.084,57.736,214.119,58,214.284,58.625L214.284,58.625z"/>
		</g>
	</g>
	<g>
		<g>
			<path fill="#9B5E58" d="M217.152,57.264c0.965,4.01,1.811,8.044,2.565,12.099c0.432,2.315,1.272,5.067,1.055,7.436
				c-0.059,0.643,0.941,0.637,1,0c0.194-2.118-0.535-4.568-0.896-6.625c-0.773-4.419-1.711-8.813-2.76-13.175
				C217.966,56.372,217.002,56.638,217.152,57.264L217.152,57.264z"/>
		</g>
	</g>
	<g>
		<g>
			<path fill="#9B5E58" d="M220.459,58.13c0.845,5.053,3.071,10.923,1.889,16.063c-0.145,0.628,0.82,0.895,0.965,0.266
				c1.233-5.362-1.011-11.337-1.889-16.594C221.317,57.229,220.354,57.5,220.459,58.13L220.459,58.13z"/>
		</g>
	</g>
	<g>
		<path fill="#F19997" d="M201.416,62.248c-1.065,5.451-4.073,11.202-4.073,11.202"/>
		<g>
			<path fill="#9B5E58" d="M200.934,62.115c-0.809,3.841-2.217,7.597-4.022,11.083c-0.296,0.571,0.566,1.077,0.863,0.504
				c1.844-3.558,3.298-7.401,4.124-11.321C202.03,61.752,201.066,61.484,200.934,62.115L200.934,62.115z"/>
		</g>
	</g>
	<g>
		<path fill="#F19997" d="M205.426,58.686c-0.625,6.169-3.548,11.417-4.283,12.537"/>
		<g>
			<path fill="#9B5E58" d="M204.926,58.686c-0.51,4.271-1.892,8.635-4.215,12.284c-0.348,0.546,0.519,1.047,0.863,0.505
				c2.421-3.802,3.821-8.346,4.352-12.789C206.002,58.046,205.001,58.054,204.926,58.686L204.926,58.686z"/>
		</g>
	</g>
	<g>
		<g>
			<path fill="#9B5E58" d="M180.522,85.458c3.563,7.31,13.171,10.926,20.803,11.989c0.63,0.088,0.902-0.876,0.266-0.965
				c-7.363-1.026-16.776-4.495-20.205-11.528C181.104,84.374,180.241,84.881,180.522,85.458L180.522,85.458z"/>
		</g>
	</g>
	<g>
		<g>
			<path fill="#9B5E58" d="M180.271,89.906c5.802,5.163,11.671,8.531,19.507,9.276c0.642,0.061,0.636-0.939,0-1
				c-7.535-0.716-13.219-4.017-18.8-8.983C180.499,88.772,179.789,89.477,180.271,89.906L180.271,89.906z"/>
		</g>
	</g>
	<g>
		<g>
			<path fill="#9B5E58" d="M195.255,48.238c7.148-1.296,16.099-2.025,22.986,0.702c0.601,0.238,0.858-0.729,0.266-0.964
				c-7.11-2.815-16.16-2.037-23.518-0.702C194.355,47.389,194.625,48.353,195.255,48.238L195.255,48.238z"/>
		</g>
	</g>
	<g>
		<g>
			<path fill="#9B5E58" d="M200.382,44.671c5.923,0.062,12.786-0.017,18.534,1.595c0.622,0.175,0.886-0.79,0.266-0.964
				c-5.851-1.642-12.778-1.569-18.8-1.631C199.736,43.665,199.737,44.665,200.382,44.671L200.382,44.671z"/>
		</g>
	</g>
	<g>
		<polygon fill="#F0CE97" points="186.96,83.029 196.673,114.811 198.568,114.04 188.557,83.447 		"/>
		<g>
			<path fill="#7C775A" d="M186.658,83.112c3.238,10.594,6.476,21.188,9.713,31.781c0.046,0.148,0.224,0.284,0.385,0.219
				c0.632-0.257,1.264-0.514,1.896-0.771c0.151-0.063,0.276-0.209,0.219-0.385c-2.024-6.184-4.048-12.368-6.071-18.552
				c-1.129-3.449-2.258-6.897-3.387-10.347c-0.603-1.844-0.398-1.814-2.369-2.331c-0.391-0.102-0.556,0.501-0.166,0.604
				c1.995,0.521,1.781,1.429,2.459,3.502c1.155,3.53,2.311,7.061,3.466,10.591c0.532,1.626,5.513,16.385,5.388,16.436
				c-1.024,0.416-1.137,1.124-1.392,0.29c-0.343-1.12-0.685-2.239-1.027-3.359c-1.12-3.667-2.241-7.334-3.361-11
				c-1.716-5.615-3.432-11.229-5.147-16.844C187.144,82.562,186.54,82.726,186.658,83.112z"/>
		</g>
	</g>
	<g>
		<polyline fill="#F0CE97" points="190.026,83.012 191.126,107.758 189.581,107.354 188.807,83.548 189.573,82.893 		"/>
		<g>
			<path fill="#7C775A" d="M189.714,83.012c0.184,4.124,0.366,8.249,0.55,12.373c0.12,2.711,0.241,5.423,0.361,8.134
				c0.046,1.022,0.091,2.045,0.137,3.066c0.044,0.988,0.128,0.788,0.047,0.767c-1.444-0.378-0.957-1.276-1.013-3.002
				c-0.097-2.967-0.193-5.933-0.29-8.898c-0.082-2.546-1.707-10.632,0.288-12.338c0.307-0.262-0.137-0.702-0.441-0.441
				c-2.103,1.797-0.647,7.346-0.567,9.831c0.161,4.95,0.322,9.9,0.483,14.851c0.005,0.139,0.092,0.266,0.229,0.302
				c0.515,0.135,1.03,0.27,1.545,0.404c0.189,0.049,0.404-0.096,0.396-0.302c-0.366-8.249-0.733-16.497-1.1-24.746
				C190.321,82.61,189.696,82.608,189.714,83.012L189.714,83.012z"/>
		</g>
	</g>
	<g>
		<path fill="#F19997" d="M204.362,85.267c0,0,5.157,5.437,4.377,9.349"/>
		<g>
			<path fill="#9B5E58" d="M204.009,85.62c2.074,2.207,4.728,5.659,4.248,8.862c-0.094,0.631,0.869,0.901,0.965,0.266
				c0.545-3.642-2.135-7.312-4.506-9.835C204.273,84.442,203.567,85.15,204.009,85.62L204.009,85.62z"/>
		</g>
	</g>
	<g>
		<path fill="#F19997" d="M206.468,84.313c2.279,1.648,5.491,6.184,5.745,8.256"/>
		<g>
			<path fill="#9B5E58" d="M206.216,84.745c2.311,1.756,5.018,5.013,5.515,7.957c0.107,0.635,1.071,0.365,0.965-0.266
				c-0.542-3.205-3.465-6.648-5.976-8.555C206.206,83.491,205.709,84.36,206.216,84.745L206.216,84.745z"/>
		</g>
	</g>
	<g>
		<path fill="#F19997" d="M207.404,86.562c1.544,2.304,2.67,4.814,3.193,6.852"/>
		<g>
			<path fill="#9B5E58" d="M206.973,86.813c1.368,2.085,2.489,4.319,3.143,6.732c0.169,0.622,1.133,0.357,0.965-0.266
				c-0.675-2.492-1.831-4.818-3.244-6.971C207.484,85.772,206.617,86.273,206.973,86.813L206.973,86.813z"/>
		</g>
	</g>
	<g>
		<path fill="#F19997" d="M211.395,84.1c2.165,3.334,3.155,4.335,2.929,5.646"/>
		<g>
			<path fill="#9B5E58" d="M210.963,84.352c0.721,1.104,1.481,2.182,2.187,3.295c0.364,0.576,0.791,1.254,0.691,1.967
				c-0.088,0.63,0.876,0.902,0.965,0.266c0.111-0.803-0.093-1.473-0.466-2.182c-0.708-1.348-1.683-2.578-2.514-3.85
				C211.476,83.31,210.609,83.811,210.963,84.352L210.963,84.352z"/>
		</g>
	</g>
	<g>
		<path fill="#F19997" d="M197.448,93.562c0,0,6.531-1.016,8.638-1.779"/>
		<g>
			<path fill="#9B5E58" d="M197.581,94.044c2.873-0.449,5.88-0.836,8.638-1.779c0.606-0.208,0.346-1.174-0.266-0.965
				c-2.758,0.944-5.766,1.331-8.638,1.779C196.68,93.179,196.95,94.143,197.581,94.044L197.581,94.044z"/>
		</g>
	</g>
	<g>
		<path fill="#F19997" d="M193.271,92.862c0,0,4.148,0.218,9.437-1.044c5.289-1.261,3.83-0.734,3.83-0.734"/>
		<g>
			<path fill="#9B5E58" d="M193.271,93.362c2.25,0.101,4.514-0.164,6.735-0.497c1.91-0.286,3.778-0.804,5.664-1.211
				c0.308-0.067,0.622-0.138,0.936-0.176c-0.081,0.01-0.131-0.902-0.201-0.877c-0.599,0.223-0.34,1.189,0.266,0.965
				c0.244-0.091,0.44-0.186,0.532-0.449c0.089-0.256-0.099-0.55-0.35-0.615c-1.438-0.378-3.908,0.751-5.256,1.054
				c-2.687,0.604-5.563,0.93-8.326,0.807C192.627,92.334,192.629,93.334,193.271,93.362L193.271,93.362z"/>
		</g>
	</g>
	<g>
		<path fill="#F19997" d="M192.626,90.28c0,0,8.928-0.278,11.64-0.937"/>
		<g>
			<path fill="#9B5E58" d="M192.626,90.78c3.884-0.124,7.966-0.113,11.772-0.954c0.63-0.14,0.362-1.104-0.266-0.965
				c-3.714,0.82-7.716,0.798-11.507,0.919C191.982,89.801,191.98,90.801,192.626,90.78L192.626,90.78z"/>
		</g>
	</g>
	<g>
		<path fill="#F19997" d="M215.413,87.074c4.288-0.691,5.243-4.138,5.243-4.138"/>
		<g>
			<path fill="#9B5E58" d="M215.546,87.557c2.41-0.436,4.88-2.007,5.593-4.487c0.178-0.621-0.787-0.885-0.965-0.266
				c-0.618,2.154-2.832,3.416-4.894,3.788C214.646,86.706,214.916,87.67,215.546,87.557L215.546,87.557z"/>
		</g>
	</g>
	<g>
		<g>
			<path fill="#9B5E58" d="M179.894,96.286c0.417-10.327,3.385-21.229,9.273-29.755c0.367-0.532-0.5-1.032-0.863-0.505
				c-6.002,8.691-8.985,19.745-9.41,30.26C178.867,96.932,179.867,96.929,179.894,96.286L179.894,96.286z"/>
		</g>
	</g>
	<g>
		<g>
			<path fill="#9B5E58" d="M177.636,94.381c0.925-10.492,3.122-22.472,9.3-31.192c0.374-0.527-0.494-1.026-0.863-0.505
				c-6.308,8.903-8.494,21-9.437,31.697C176.579,95.023,177.58,95.018,177.636,94.381L177.636,94.381z"/>
		</g>
	</g>
	<g>
		<g>
			<path fill="#9B5E58" d="M174.922,91.295c1.161-5.188,2.486-10.342,3.901-15.466c1.938-7.019,3.737-15.525,8.179-21.455
				c0.387-0.517-0.481-1.014-0.863-0.505c-4.303,5.745-6.051,13.855-7.979,20.619c-1.559,5.468-2.961,10.992-4.203,16.541
				C173.816,91.657,174.781,91.924,174.922,91.295L174.922,91.295z"/>
		</g>
	</g>
	<g>
		<g>
			<path fill="#9B5E58" d="M173.358,87.264c0.857-4.467,1.896-8.902,3.024-13.308c1.603-6.247,3.167-14.52,7.65-19.421
				c0.435-0.475-0.271-1.184-0.707-0.707c-4.186,4.576-5.739,11.927-7.335,17.71c-1.406,5.096-2.601,10.269-3.598,15.46
				C172.272,87.628,173.236,87.896,173.358,87.264L173.358,87.264z"/>
		</g>
	</g>
	<g>
		<g>
			<path fill="#9B5E58" d="M220.691,49.746c1.02,3.504,1.991,7.022,2.936,10.548c1.069,3.993,4.04,10.692,3.121,14.872
				c-0.138,0.628,0.826,0.896,0.965,0.266c0.809-3.681-1.445-8.923-2.339-12.416c-1.158-4.532-2.412-9.043-3.718-13.535
				C221.477,48.862,220.511,49.125,220.691,49.746L220.691,49.746z"/>
		</g>
	</g>
	<g>
		<g>
			<path fill="#9B5E58" d="M223.238,50.519c0.934,1.434,1.809,2.906,2.653,4.393c1.238,2.182,2.967,4.855,3.079,7.428
				c0.028,0.642,1.028,0.645,1,0c-0.107-2.458-1.57-4.9-2.704-7.008c-0.976-1.814-2.04-3.591-3.165-5.318
				C223.751,49.476,222.885,49.976,223.238,50.519L223.238,50.519z"/>
		</g>
	</g>
	<g>
		<g>
			<path fill="#9B5E58" d="M223.302,52.725c2.827,4.846,5.587,10.953,4.925,16.667c-0.074,0.64,0.927,0.633,1,0
				c0.682-5.881-2.152-12.187-5.062-17.171C223.841,51.664,222.976,52.167,223.302,52.725L223.302,52.725z"/>
		</g>
	</g>
	<g>
		<polygon fill="#F0CE97" points="172.269,29.664 172.436,30.292 184.533,75.927 186.188,76.36 174.797,30.325 		"/>
		<g>
			<path fill="#7C775A" d="M171.967,29.747c4.101,15.418,8.177,30.842,12.265,46.263c0.028,0.104,0.114,0.191,0.219,0.219
				c0.552,0.145,1.104,0.289,1.655,0.434c0.234,0.061,0.441-0.153,0.385-0.385c-3.798-15.345-7.595-30.69-11.392-46.035
				c-0.026-0.104-0.116-0.191-0.219-0.218c-0.843-0.221-1.686-0.441-2.528-0.662c-0.391-0.102-0.556,0.5-0.166,0.603
				c1.409,0.369,2.208,0.031,2.534,1.349c0.351,1.419,0.702,2.837,1.053,4.256c1.315,5.313,2.63,10.626,3.944,15.94
				c2.055,8.302,4.109,16.605,6.164,24.907c-0.198-0.799-1.045-0.57-1.376-1.816c-0.412-1.555-0.824-3.11-1.236-4.665
				c-1.452-5.476-2.903-10.952-4.355-16.427c-2.114-7.976-4.223-15.954-6.343-23.928C172.467,29.191,171.863,29.356,171.967,29.747z
				"/>
		</g>
	</g>
	<g>
		<polygon fill="#F0CE97" points="189.592,10.289 189.032,76.654 190.298,76.985 191.662,10.831 		"/>
		<g>
			<path fill="#7C775A" d="M189.279,10.289c-0.187,22.122-0.373,44.244-0.56,66.366c-0.001,0.138,0.096,0.267,0.229,0.302
				c0.422,0.11,0.844,0.221,1.266,0.331c0.199,0.052,0.392-0.098,0.396-0.302c0.455-22.052,0.909-44.103,1.364-66.155
				c0.003-0.137-0.098-0.267-0.229-0.301c-0.69-0.181-1.38-0.361-2.07-0.542c-0.391-0.102-0.556,0.5-0.166,0.603
				c1.904,0.499,1.848-0.106,1.81,1.752c-0.046,2.229-0.092,4.457-0.138,6.686c-0.15,7.302-0.302,14.605-0.452,21.907
				c-0.246,11.958-0.493,23.917-0.739,35.876c-0.005,0.245-0.64-0.778-0.632-1.672c0.019-2.236,0.038-4.472,0.057-6.708
				c0.062-7.326,0.123-14.651,0.186-21.977c0.101-11.997,0.202-23.993,0.303-35.99c0.001-0.059,0.002-0.117,0.002-0.176
				C189.907,9.885,189.282,9.886,189.279,10.289z"/>
		</g>
	</g>
	<g>
		<path fill="#F0CE97" d="M176.188,29.629c0.12,0.546-0.993,1.263-2.482,1.602c-1.491,0.339-2.798,0.172-2.917-0.374
			c-0.12-0.545,0.992-1.263,2.483-1.602C174.763,28.916,176.068,29.083,176.188,29.629z"/>
		<g>
			<path fill="#7C775A" d="M175.876,29.629c0.023,0.683-1.454,1.075-1.889,1.208c-0.815,0.25-1.929,0.439-2.744,0.086
				c-0.451-0.195,0.506-0.772,0.582-0.818c0.468-0.276,1.009-0.417,1.53-0.549c0.425-0.107,2.267-0.473,2.531,0.156
				c0.154,0.366,0.76,0.205,0.604-0.166c-0.442-1.049-2.047-0.8-2.933-0.667c-0.926,0.139-3.125,0.703-3.081,1.977
				c0.063,1.818,6.093,0.74,6.024-1.228C176.487,29.227,175.862,29.226,175.876,29.629z"/>
		</g>
	</g>
	<g>
		<path fill="#F0CE97" d="M193.334,11.427c-0.042,0.563-1.321,0.922-2.857,0.803c-1.537-0.119-2.749-0.672-2.706-1.234
			c0.042-0.562,1.322-0.921,2.858-0.802C192.164,10.313,193.376,10.865,193.334,11.427z"/>
		<g>
			<path fill="#7C775A" d="M193.032,11.344c-0.176,0.671-1.688,0.595-2.178,0.593c-0.857-0.002-1.994-0.169-2.675-0.75
				c-0.371-0.317,0.733-0.593,0.816-0.613c0.528-0.126,1.096-0.097,1.633-0.069c0.477,0.025,2.318,0.229,2.393,0.921
				c0.043,0.396,0.668,0.4,0.625,0c-0.119-1.109-1.765-1.418-2.641-1.507c-0.935-0.096-3.202-0.281-3.537,0.993
				c-0.462,1.761,5.661,2.527,6.167,0.598C193.737,11.12,193.135,10.955,193.032,11.344z"/>
		</g>
	</g>
</g>
<line fill="none" stroke="#666766" stroke-miterlimit="10" stroke-dasharray="4,2" x1="4.586" y1="74.514" x2="38.159" y2="74.514"/>
<line fill="none" stroke="#666766" stroke-miterlimit="10" stroke-dasharray="4,2" x1="145.433" y1="74.514" x2="163.433" y2="74.514"/>
<line fill="none" stroke="#666766" stroke-miterlimit="10" stroke-dasharray="4,2" x1="236.522" y1="74.514" x2="281.522" y2="74.514"/>
</svg>
