<?xml version="1.0" encoding="utf-8"?>
<!-- Generator: Adobe Illustrator 16.2.0, SVG Export Plug-In . SVG Version: 6.00 Build 0)  -->
<!DOCTYPE svg PUBLIC "-//W3C//DTD SVG 1.1//EN" "http://www.w3.org/Graphics/SVG/1.1/DTD/svg11.dtd">
<svg version="1.1" id="Layer_1" xmlns="http://www.w3.org/2000/svg" xmlns:xlink="http://www.w3.org/1999/xlink" x="0px" y="0px"
	 width="288px" height="144px" viewBox="0 0 288 144" enable-background="new 0 0 288 144" xml:space="preserve">
<g>
	<polyline fill="#F9F6E1" points="72,90 72,9 9,9 9,90 54,90 	"/>
	<g>
		<path fill="#666766" d="M73.25,90c0-27,0-54,0-81c0-0.682-0.568-1.25-1.25-1.25c-21,0-42,0-63,0C8.318,7.75,7.75,8.318,7.75,9
			c0,27,0,54,0,81c0,0.682,0.568,1.25,1.25,1.25c15,0,30,0,45,0c1.612,0,1.612-2.5,0-2.5c-15,0-30,0-45,0
			c0.417,0.417,0.833,0.833,1.25,1.25c0-27,0-54,0-81C9.833,9.417,9.417,9.833,9,10.25c21,0,42,0,63,0
			C71.583,9.833,71.167,9.417,70.75,9c0,27,0,54,0,81C70.75,91.612,73.25,91.612,73.25,90L73.25,90z"/>
	</g>
</g>
<g>
	<g>
		<g>
			<path fill="#FFFFFF" d="M40.16,54.02c20.751-3.22,41.503-6.44,62.255-9.66c-1.538-0.873-3.076-1.746-4.613-2.619
				c4.14,26.681,8.28,53.362,12.42,80.042c0.873-1.538,1.746-3.075,2.619-4.613c-20.751,3.221-41.503,6.44-62.255,9.66
				c1.538,0.873,3.076,1.746,4.613,2.619c-4.14-26.681-8.28-53.361-12.42-80.042c-0.74-4.768-7.966-2.736-7.232,1.994
				c4.14,26.68,8.28,53.362,12.42,80.042c0.338,2.18,2.786,2.902,4.613,2.619c20.751-3.221,41.503-6.44,62.255-9.66
				c2.18-0.339,2.902-2.786,2.619-4.613c-4.14-26.681-8.28-53.361-12.42-80.042c-0.338-2.18-2.786-2.902-4.613-2.619
				c-20.751,3.22-41.503,6.44-62.255,9.66C33.398,47.527,35.43,54.754,40.16,54.02z"/>
		</g>
	</g>
	<g>
		<g>
			<path fill="#FFFFFF" d="M50.433,61.534c8.894-1.38,17.787-2.76,26.681-4.14c4.768-0.74,2.736-7.966-1.994-7.232
				c-8.894,1.38-17.787,2.76-26.681,4.14C43.671,55.042,45.703,62.268,50.433,61.534L50.433,61.534z"/>
		</g>
	</g>
	<g>
		<g>
			<path fill="#FFFFFF" d="M51.813,70.427c5.929-0.92,11.858-1.84,17.787-2.76c4.768-0.74,2.736-7.966-1.994-7.232
				c-5.929,0.92-11.858,1.84-17.787,2.76C45.051,63.935,47.083,71.161,51.813,70.427L51.813,70.427z"/>
		</g>
	</g>
	<g>
		<g>
			<path fill="#FFFFFF" d="M53.193,79.32c5.929-0.92,11.858-1.84,17.788-2.76c4.768-0.74,2.736-7.966-1.994-7.232
				c-5.929,0.92-11.858,1.84-17.788,2.76C46.431,72.828,48.463,80.054,53.193,79.32L53.193,79.32z"/>
		</g>
	</g>
	<g>
		<g>
			<path fill="#FFFFFF" d="M55.953,97.107c14.822-2.3,29.645-4.6,44.468-6.899c4.768-0.74,2.736-7.966-1.994-7.232
				c-14.822,2.3-29.645,4.6-44.468,6.899C49.191,90.615,51.223,97.841,55.953,97.107L55.953,97.107z"/>
		</g>
	</g>
	<g>
		<g>
			<path fill="#FFFFFF" d="M57.333,106.001c14.823-2.3,29.646-4.6,44.469-6.899c4.768-0.74,2.736-7.966-1.994-7.232
				c-14.823,2.3-29.646,4.6-44.469,6.899C50.571,99.509,52.603,106.734,57.333,106.001L57.333,106.001z"/>
		</g>
	</g>
	<g>
		<g>
			<path fill="#FFFFFF" d="M58.713,114.895c14.822-2.3,29.645-4.6,44.467-6.899c4.768-0.74,2.736-7.966-1.994-7.232
				c-14.822,2.3-29.645,4.6-44.467,6.899C51.952,108.402,53.983,115.628,58.713,114.895L58.713,114.895z"/>
		</g>
	</g>
</g>
<g>
	<circle fill="#F2DFE0" cx="152.695" cy="21.682" r="15.724"/>
	<g>
		<path fill="#666766" d="M167.169,21.682c-0.347,8.142-6.333,14.128-14.475,14.474c-8.133,0.346-14.149-6.854-14.474-14.474
			c-0.346-8.133,6.854-14.149,14.474-14.474C160.828,6.862,166.845,14.062,167.169,21.682c0.068,1.606,2.568,1.613,2.5,0
			c-0.405-9.534-7.44-16.568-16.975-16.974c-9.523-0.405-16.594,8.049-16.974,16.974c-0.405,9.523,8.049,16.594,16.974,16.974
			c9.523,0.405,16.595-8.049,16.975-16.974C169.737,20.069,167.237,20.076,167.169,21.682z"/>
	</g>
</g>
<g>
	<path fill="#E5E077" d="M152.694,42.753h-7.862c0,0-15.724,0-15.724,7.862c0,7.862,0,7.862,0,7.862h23.585h23.586c0,0,0,0,0-7.862
		c0-7.862-15.724-7.862-15.724-7.862H152.694z"/>
	<g>
		<path fill="#666766" d="M152.694,41.503c-5.867,0-11.659-0.262-17.361,1.393c-8.158,2.368-7.475,8.3-7.475,15.582
			c0,0.682,0.569,1.25,1.25,1.25c15.724,0,31.448,0,47.171,0c0.682,0,1.25-0.568,1.25-1.25c0-7.116,0.816-12.369-6.621-15.293
			C165.248,40.958,158.638,41.503,152.694,41.503c-1.612,0-1.612,2.5,0,2.5c4.419,0,8.853-0.211,13.233,0.487
			c3.501,0.558,8.782,1.853,9.103,6.125c0.194,2.589,0,5.259,0,7.862c0.417-0.417,0.833-0.833,1.25-1.25
			c-15.724,0-31.448,0-47.171,0c0.417,0.417,0.833,0.833,1.25,1.25c0-2.019,0-4.037,0-6.056c0-5.286,3.612-6.772,8.249-7.773
			c4.584-0.989,9.438-0.646,14.086-0.646C154.307,44.003,154.307,41.503,152.694,41.503z"/>
	</g>
</g>
<g>
	<g>
		<path fill="#FFFFFF" d="M188.498,29.442c-0.691,17.954-27.149,17.955-27.841,0c-0.301-7.81,6.556-13.638,13.919-13.921
			C182.387,15.22,188.215,22.079,188.498,29.442c0.186,4.82,7.687,4.838,7.5,0c-0.461-11.986-9.437-20.96-21.422-21.421
			c-11.975-0.461-20.984,10.13-21.419,21.421c-0.461,11.975,10.126,20.987,21.419,21.421c11.976,0.461,20.987-10.128,21.422-21.421
			C196.185,24.604,188.684,24.622,188.498,29.442z"/>
	</g>
</g>
<g>
	<path fill="#8B8B8B" d="M174.576,53.124h-8.835c0,0-17.67,0-17.67,8.835c0,8.836,0,8.836,0,8.836h26.505h26.508c0,0,0,0,0-8.836
		c0-8.835-17.672-8.835-17.672-8.835H174.576z"/>
	<g>
		<path fill="#FFFFFF" d="M174.576,49.374c-6.887,0-13.747-0.3-20.424,1.742c-4.425,1.353-8.638,4.226-9.64,8.992
			c-0.711,3.388-0.191,7.218-0.191,10.688c0,2.044,1.706,3.75,3.75,3.75c17.671,0,35.342,0,53.013,0c2.044,0,3.75-1.706,3.75-3.75
			c0-3.47,0.521-7.3-0.191-10.688c-1.03-4.902-5.227-7.446-9.641-8.992C188.546,48.854,181.292,49.374,174.576,49.374
			c-4.837,0-4.837,7.5,0,7.5c4.965,0,10.006-0.293,14.918,0.585c4.021,0.719,7.84,1.697,7.84,6.262c0,2.358,0,4.716,0,7.075
			c1.25-1.25,2.5-2.5,3.75-3.75c-17.671,0-35.342,0-53.013,0c1.25,1.25,2.5,2.5,3.75,3.75c0-2.358,0-4.716,0-7.075
			c0-4.637,3.826-5.44,7.839-6.262c4.844-0.992,10.015-0.585,14.916-0.585C179.413,56.874,179.413,49.374,174.576,49.374z"/>
	</g>
</g>
<g>
	<g>
		<path fill="#666766" d="M18,18.938c6,0,12,0,18,0c1.209,0,1.209-1.875,0-1.875c-6,0-12,0-18,0
			C16.791,17.063,16.791,18.938,18,18.938L18,18.938z"/>
	</g>
</g>
<g>
	<g>
		<path fill="#666766" d="M18,27.938c15,0,30,0,45,0c1.209,0,1.209-1.875,0-1.875c-15,0-30,0-45,0
			C16.791,26.063,16.791,27.938,18,27.938L18,27.938z"/>
	</g>
</g>
<g>
	<g>
		<path fill="#666766" d="M18,36.938c15,0,30,0,45,0c1.209,0,1.209-1.875,0-1.875c-15,0-30,0-45,0
			C16.791,35.063,16.791,36.938,18,36.938L18,36.938z"/>
	</g>
</g>
<g>
	<g>
		<path fill="#666766" d="M18,45.938c6,0,12,0,18,0c1.209,0,1.209-1.875,0-1.875c-6,0-12,0-18,0
			C16.791,44.063,16.791,45.938,18,45.938L18,45.938z"/>
	</g>
</g>
<g>
	<g>
		<path fill="#666766" d="M18,63.938c6,0,12,0,18,0c1.209,0,1.209-1.875,0-1.875c-6,0-12,0-18,0
			C16.791,62.063,16.791,63.938,18,63.938L18,63.938z"/>
	</g>
</g>
<g>
	<g>
		<path fill="#666766" d="M18,72.938c3,0,6,0,9,0c1.209,0,1.209-1.875,0-1.875c-3,0-6,0-9,0C16.791,71.063,16.791,72.938,18,72.938
			L18,72.938z"/>
	</g>
</g>
<g>
	<g>
		<path fill="#666766" d="M18,81.938c3,0,6,0,9,0c1.209,0,1.209-1.875,0-1.875c-3,0-6,0-9,0C16.791,80.063,16.791,81.938,18,81.938
			L18,81.938z"/>
	</g>
</g>
<g>
	<g>
		
			<rect x="45" y="45" transform="matrix(-0.9882 0.1533 -0.1533 -0.9882 165.2056 158.2592)" fill="#F9F6E1" width="63" height="81"/>
		<g>
			<path fill="#666766" d="M39.495,51.515c20.751-3.22,41.503-6.44,62.255-9.66c-0.513-0.291-1.025-0.582-1.538-0.873
				c4.14,26.681,8.28,53.361,12.42,80.042c0.291-0.513,0.582-1.024,0.873-1.537c-20.751,3.22-41.503,6.439-62.255,9.66
				c0.513,0.291,1.025,0.582,1.538,0.873c-4.14-26.681-8.28-53.362-12.42-80.043c-0.247-1.589-2.656-0.912-2.411,0.665
				c4.14,26.681,8.28,53.361,12.42,80.042c0.113,0.727,0.929,0.968,1.538,0.873c20.751-3.22,41.503-6.439,62.255-9.66
				c0.727-0.112,0.967-0.929,0.873-1.537c-4.14-26.681-8.28-53.362-12.42-80.043c-0.113-0.727-0.929-0.967-1.538-0.873
				c-20.751,3.22-41.503,6.44-62.255,9.66C37.241,49.351,37.918,51.759,39.495,51.515z"/>
		</g>
	</g>
	<g>
		<g>
			<path fill="#666766" d="M49.685,58.727c8.894-1.38,17.787-2.76,26.681-4.14c1.192-0.185,0.684-1.991-0.498-1.808
				c-8.894,1.38-17.787,2.76-26.681,4.14C47.995,57.104,48.503,58.91,49.685,58.727L49.685,58.727z"/>
		</g>
	</g>
	<g>
		<g>
			<path fill="#666766" d="M51.065,67.62c5.929-0.92,11.858-1.84,17.787-2.76c1.192-0.185,0.684-1.991-0.498-1.808
				c-5.929,0.92-11.858,1.84-17.787,2.76C49.375,65.997,49.883,67.804,51.065,67.62L51.065,67.62z"/>
		</g>
	</g>
	<g>
		<g>
			<path fill="#666766" d="M52.445,76.514c5.929-0.92,11.858-1.84,17.788-2.76c1.192-0.186,0.684-1.992-0.498-1.808
				c-5.929,0.92-11.858,1.839-17.788,2.759C50.754,74.891,51.263,76.697,52.445,76.514L52.445,76.514z"/>
		</g>
	</g>
	<g>
		<g>
			<path fill="#666766" d="M55.205,94.301c14.823-2.3,29.646-4.6,44.468-6.899c1.192-0.186,0.684-1.992-0.498-1.809
				c-14.823,2.3-29.646,4.6-44.468,6.899C53.515,92.678,54.023,94.484,55.205,94.301L55.205,94.301z"/>
		</g>
	</g>
	<g>
		<g>
			<path fill="#666766" d="M56.585,103.194c14.823-2.3,29.646-4.6,44.468-6.899c1.192-0.186,0.684-1.992-0.498-1.809
				c-14.823,2.3-29.646,4.6-44.468,6.899C54.895,101.571,55.403,103.378,56.585,103.194L56.585,103.194z"/>
		</g>
	</g>
	<g>
		<g>
			<path fill="#666766" d="M57.965,112.088c14.823-2.3,29.646-4.6,44.468-6.899c1.192-0.186,0.684-1.992-0.498-1.809
				c-14.823,2.3-29.646,4.6-44.468,6.899C56.275,110.465,56.783,112.271,57.965,112.088L57.965,112.088z"/>
		</g>
	</g>
</g>
<path fill="none" stroke="#666766" stroke-width="1.875" stroke-miterlimit="10" d="M232.601,41.707l-24.623,67.173
	c0,0-2.463,6.718,4.255,9.18c6.717,2.462,26.868,9.85,26.868,9.85l6.718,2.462c0,0,6.718,2.462,9.18-4.256
	c2.464-6.716,24.624-67.171,24.624-67.171s2.462-6.718-4.256-9.18c-6.717-2.463-33.586-12.312-33.586-12.312
	S235.063,34.989,232.601,41.707z"/>
<g>
	<g>
		<path fill="#666766" d="M249.795,46.568c4.479,1.642,8.957,3.283,13.436,4.924c1.138,0.417,1.624-1.396,0.498-1.808
			c-4.479-1.642-8.957-3.283-13.436-4.924C249.155,44.343,248.669,46.156,249.795,46.568L249.795,46.568z"/>
	</g>
</g>
<circle fill="none" stroke="#666766" stroke-width="1.5" stroke-miterlimit="10" cx="230.866" cy="119.686" r="2.315"/>
<g>
	<g>
		<path fill="#666766" d="M246.83,45.735c1.612,0,1.612-2.5,0-2.5S245.218,45.735,246.83,45.735L246.83,45.735z"/>
	</g>
</g>
<g>
	
		<rect x="223.051" y="50.555" transform="matrix(0.9389 0.3442 -0.3442 0.9389 43.6624 -78.8234)" fill="#B3D3F0" width="41.635" height="66.051"/>
	<g>
		<path fill="#666766" d="M252.297,120.849c-11.595-4.25-23.189-8.5-34.785-12.75c-1.426-0.522-2.852-1.046-4.277-1.568
			c1.057,0.388,0.406,1.741,0.861,0.5c0.272-0.743,0.545-1.486,0.817-2.229c2.1-5.729,4.2-11.459,6.3-17.188
			c4.825-13.163,9.65-26.327,14.477-39.491c0.222-0.607,0.444-1.214,0.667-1.822c0.479-1.304,0.003,0.349-0.888,0.022
			c1.635,0.6,3.27,1.199,4.904,1.798c7.153,2.622,14.308,5.245,21.462,7.867c3.511,1.287,7.021,2.574,10.531,3.861
			c0.684,0.25,1.367,0.501,2.05,0.751c-0.896-0.329-0.306-1.747-0.857-0.242c-2.345,6.397-4.689,12.794-7.034,19.19
			c-5.127,13.985-10.254,27.971-15.381,41.956c-0.417,1.138,1.396,1.624,1.809,0.498c7.577-20.672,15.155-41.343,22.733-62.015
			c0.187-0.508-0.207-0.989-0.655-1.153c-13.03-4.777-26.062-9.553-39.093-14.33c-0.509-0.187-0.989,0.207-1.153,0.655
			c-7.577,20.672-15.154,41.344-22.732,62.016c-0.187,0.509,0.207,0.989,0.655,1.153c13.03,4.776,26.061,9.553,39.092,14.329
			C252.937,123.074,253.423,121.262,252.297,120.849z"/>
	</g>
</g>
<g>
	<g>
		<path fill="none" stroke="#666766" stroke-miterlimit="10" d="M19.346,95.766c0,0-0.026,0.752,0.061,1.996"/>
		<path fill="none" stroke="#666766" stroke-miterlimit="10" stroke-dasharray="3.7068,1.8534" d="M19.592,99.602
			c0.859,6.624,4.63,19.637,20.942,21.027"/>
		<path fill="none" stroke="#666766" stroke-miterlimit="10" d="M41.462,120.694c0.647,0.037,1.314,0.056,2,0.056"/>
	</g>
</g>
<g>
	<circle fill="#A8896F" cx="174.541" cy="29.442" r="17.672"/>
	<g>
		<path fill="#666766" d="M190.963,29.442c-0.354,9.213-7.209,16.067-16.422,16.421c-9.206,0.354-16.088-7.745-16.422-16.421
			c-0.354-9.206,7.745-16.087,16.422-16.421C183.746,12.667,190.629,20.766,190.963,29.442c0.062,1.607,2.563,1.613,2.5,0
			c-0.408-10.597-8.325-18.513-18.922-18.921c-10.588-0.408-18.537,8.936-18.922,18.921c-0.407,10.588,8.937,18.537,18.922,18.921
			c10.588,0.408,18.537-8.936,18.922-18.921C193.525,27.83,191.024,27.835,190.963,29.442z"/>
	</g>
</g>
<g>
	<path fill="#93BC8A" d="M174.541,53.124h-8.836c0,0-17.671,0-17.671,8.835c0,8.836,0,8.836,0,8.836h26.507h26.508c0,0,0,0,0-8.836
		c0-8.835-17.672-8.835-17.672-8.835H174.541z"/>
	<g>
		<path fill="#666766" d="M174.541,51.874c-6.669,0-13.297-0.324-19.761,1.652c-8.871,2.712-7.996,9.343-7.996,17.269
			c0,0.682,0.568,1.25,1.25,1.25c17.672,0,35.343,0,53.015,0c0.682,0,1.25-0.568,1.25-1.25c0-3.22,0.555-6.896-0.103-10.022
			c-0.844-4.019-4.271-5.978-7.895-7.247C188.054,51.337,181.037,51.874,174.541,51.874c-1.612,0-1.612,2.5,0,2.5
			c5.215,0,10.427-0.247,15.583,0.674c5.166,0.923,9.675,2.831,9.675,8.672c0,2.358,0,4.716,0,7.075
			c0.417-0.417,0.833-0.833,1.25-1.25c-17.672,0-35.343,0-53.015,0c0.417,0.417,0.833,0.833,1.25,1.25c0-2.358,0-4.716,0-7.075
			c0-5.948,4.522-7.618,9.675-8.672c5.084-1.041,10.434-0.674,15.582-0.674C176.153,54.374,176.153,51.874,174.541,51.874z"/>
	</g>
</g>
<g>
	<g>
		<path fill="#666766" d="M169.243,28.534c2.418,0,2.418-3.75,0-3.75S166.825,28.534,169.243,28.534L169.243,28.534z"/>
	</g>
</g>
<g>
	<g>
		<path fill="#666766" d="M179.839,28.534c2.418,0,2.418-3.75,0-3.75S177.421,28.534,179.839,28.534L179.839,28.534z"/>
	</g>
</g>
<g>
	<g>
		<path fill="#666766" d="M178.74,36.499c-2.901,1.202-5.916,1.134-8.701-0.346c-1.067-0.567-2.015,1.052-0.947,1.619
			c3.201,1.7,6.785,1.927,10.146,0.534C180.339,37.851,179.857,36.036,178.74,36.499L178.74,36.499z"/>
	</g>
</g>
<path fill="none" stroke="#666766" stroke-miterlimit="10" stroke-dasharray="4,2" d="M119.159,114.117c0,0,45.003,0,54.003,0
	s9-9,9-9v-9c0,0,0-9,9-9s18,0,18,0"/>
<path fill="none" stroke="#666766" stroke-miterlimit="10" stroke-dasharray="4,2" d="M198,18h54c0,0,9,0,9,9s0,9,0,9"/>
<path fill="none" stroke="#666766" stroke-miterlimit="10" stroke-dasharray="4,2" d="M130.375,18.049h-39.5
	c0,0-9.875,0-9.875,9.875s0,9.875,0,9.875"/>
<g>
	<g>
		<path fill="#666766" d="M172.205,33.405c1.239,0.975,2.602,0.673,3.959,0.086c0.469-0.203,0.57-0.882,0.336-1.283
			c-0.281-0.48-0.813-0.539-1.283-0.336c-0.397,0.172-0.823,0.318-1.26,0.325c-0.128,0.002-0.117-0.001-0.28-0.048
			c0.153,0.044-0.292-0.185-0.146-0.07c-0.401-0.315-0.933-0.393-1.326,0C171.876,32.408,171.803,33.088,172.205,33.405
			L172.205,33.405z"/>
	</g>
</g>
<g>
	<g>
		<path fill="#666766" d="M169.772,21.628c-1.182-0.613-2.366-0.11-3.393,0.585c-0.663,0.449-0.038,1.533,0.631,1.079
			c0.589-0.399,1.402-0.963,2.131-0.585C169.855,23.078,170.488,21.999,169.772,21.628L169.772,21.628z"/>
	</g>
</g>
<g>
	<g>
		<path fill="#666766" d="M179.88,23.444c0.729-0.094,1.57-0.04,2.183,0.401c0.655,0.473,1.278-0.613,0.631-1.079
			c-0.771-0.556-1.888-0.692-2.813-0.572c-0.338,0.043-0.625,0.251-0.625,0.625C179.255,23.127,179.541,23.488,179.88,23.444
			L179.88,23.444z"/>
	</g>
</g>
</svg>
