<?xml version="1.0" encoding="utf-8"?>
<!-- Generator: Adobe Illustrator 16.2.0, SVG Export Plug-In . SVG Version: 6.00 Build 0)  -->
<!DOCTYPE svg PUBLIC "-//W3C//DTD SVG 1.1//EN" "http://www.w3.org/Graphics/SVG/1.1/DTD/svg11.dtd">
<svg version="1.1" id="Layer_1" xmlns="http://www.w3.org/2000/svg" xmlns:xlink="http://www.w3.org/1999/xlink" x="0px" y="0px"
	 width="480px" height="480px" viewBox="0 0 480 480" enable-background="new 0 0 480 480" xml:space="preserve">
<path fill="#243E90" d="M240,18.01v222.83H18.02C18,240.06,18,239.28,18,238.5C18,116.72,116.72,18,238.5,18
	C239,18,239.5,18,240,18.01z"/>
<path fill="#CC3333" d="M430.62,130.21H240V18.01C321.8,18.55,393.01,63.63,430.62,130.21z"/>
<path fill="#FFFFFF" d="M459,238.5c0,0.78,0,1.56-0.02,2.34H240V130.21h190.62C448.69,162.19,459,199.14,459,238.5z"/>
<path fill="#CC3333" d="M458.98,240.84C458.57,281,447.42,318.58,428.27,350.86H48.73C29.58,318.58,18.43,281,18.02,240.84H458.98z"
	/>
<path fill="#FFFFFF" d="M428.27,350.86C389.85,415.6,319.24,459,238.5,459S87.15,415.6,48.73,350.86H428.27z"/>
</svg>
